<?xml version="1.0" standalone="no"?>
<!DOCTYPE svg PUBLIC "-//W3C//DTD SVG 20010904//EN"
 "http://www.w3.org/TR/2001/REC-SVG-20010904/DTD/svg10.dtd">
<svg version="1.0" xmlns="http://www.w3.org/2000/svg"
 width="384.000000pt" height="350.000000pt" viewBox="0 0 384.000000 350.000000"
 preserveAspectRatio="xMidYMid meet">

<g transform="translate(0.000000,350.000000) scale(0.100000,-0.100000)"
fill="#000000" stroke="none">
<path d="M1530 3491 c-107 -22 -173 -104 -174 -216 0 -64 9 -88 56 -147 l29
-38 -210 -501 c-116 -276 -212 -503 -214 -505 -2 -3 -33 2 -68 10 -206 46
-408 15 -582 -90 -83 -51 -203 -173 -254 -260 -85 -143 -123 -320 -103 -472
42 -320 240 -556 545 -652 118 -37 247 -38 425 -3 24 4 28 -2 67 -98 l42 -103
-30 -33 c-84 -96 -78 -239 14 -320 47 -41 96 -56 167 -51 226 16 274 322 65
419 -22 10 -58 19 -80 19 l-40 0 -43 107 c-29 72 -40 109 -32 111 6 2 45 26
85 53 169 113 285 291 324 497 l15 82 68 0 c66 0 68 -1 68 -25 0 -44 29 -100
63 -121 26 -16 51 -19 137 -19 58 0 122 4 143 8 l37 8 0 74 0 75 48 0 c46 0
49 -2 61 -35 7 -19 29 -47 48 -62 33 -25 44 -28 120 -28 58 0 83 -4 83 -12 0
-27 -25 -64 -48 -70 -26 -6 -138 1 -163 12 -13 5 -19 -4 -28 -41 -7 -26 -8
-51 -4 -55 18 -18 151 -30 208 -20 114 21 154 80 155 224 l0 87 44 0 c39 0 45
-3 57 -31 31 -75 123 -139 200 -139 51 0 118 26 152 58 131 124 70 350 -103
380 -102 18 -191 -25 -242 -116 -29 -50 -32 -53 -67 -50 l-36 3 -3 77 -3 77
-50 10 c-78 17 -178 13 -224 -8 -50 -22 -91 -69 -106 -121 -12 -38 -14 -40
-54 -40 -43 0 -43 0 -49 43 -9 60 -40 105 -84 124 -40 17 -165 20 -217 5 -28
-8 -30 -12 -26 -48 1 -21 5 -42 7 -46 2 -3 39 -4 82 -1 82 5 104 -3 116 -43 6
-20 2 -21 -106 -27 -62 -4 -151 -7 -199 -7 l-85 0 -13 78 c-25 153 -104 305
-216 416 -52 51 -154 127 -186 138 -8 3 200 513 384 943 l34 80 54 5 c66 7
106 27 148 76 42 47 51 73 51 140 0 98 -61 180 -154 209 -53 16 -54 16 -106 6z"/>
<path d="M1837 1732 l-57 -66 26 -27 27 -28 66 56 c36 31 67 59 69 63 1 3 -15
20 -36 37 l-39 31 -56 -66z"/>
<path d="M3227 1570 c-82 -21 -77 -7 -77 -230 l0 -200 60 0 60 0 2 168 3 167
71 -2 71 -2 7 46 c3 26 4 49 1 51 -10 10 -160 11 -198 2z"/>
<path d="M3533 1573 c-24 -5 -30 -32 -17 -79 5 -19 11 -20 84 -16 69 4 80 2
99 -17 11 -11 21 -29 21 -38 0 -16 -10 -18 -73 -18 -122 -1 -181 -45 -181
-138 0 -54 24 -93 70 -117 38 -19 177 -25 249 -10 l57 12 -3 161 c-4 140 -7
167 -24 196 -32 54 -75 71 -175 70 -47 -1 -95 -4 -107 -6z"/>
<path d="M2982 1121 c-21 -13 -10 -46 16 -49 27 -4 40 22 22 43 -14 17 -20 18
-38 6z"/>
<path d="M2590 982 c0 -84 20 -112 80 -112 68 0 70 3 70 96 0 83 0 84 -25 84
-24 0 -25 -2 -25 -66 0 -62 -1 -65 -22 -62 -21 3 -23 9 -26 66 -3 58 -4 62
-27 62 -24 0 -25 -2 -25 -68z"/>
<path d="M2784 1037 c-3 -8 -4 -47 -2 -88 3 -71 4 -74 27 -74 24 0 25 3 23 55
-3 61 7 84 31 74 12 -4 17 -22 19 -67 3 -56 5 -62 26 -65 21 -3 22 0 22 71 0
59 -4 77 -18 90 -23 21 -120 24 -128 4z"/>
<path d="M2972 963 c3 -86 3 -88 28 -88 25 0 25 1 25 85 l0 85 -28 3 -28 3 3
-88z"/>
<path d="M3085 1025 c-35 -34 -35 -96 0 -131 20 -20 33 -25 68 -22 34 2 42 7
42 23 0 16 -8 21 -35 23 -19 2 -38 9 -42 15 -22 35 9 82 47 73 17 -4 24 -1 28
14 7 26 0 30 -45 30 -28 0 -46 -7 -63 -25z"/>
<path d="M3230 1028 c0 -20 5 -23 37 -23 20 0 38 -6 40 -12 3 -9 -6 -13 -27
-13 -47 0 -70 -16 -70 -50 0 -37 32 -60 81 -60 64 0 69 5 69 74 0 85 -16 106
-81 106 -44 0 -49 -2 -49 -22z m80 -98 c0 -21 -33 -29 -45 -10 -9 15 4 30 26
30 12 0 19 -7 19 -20z"/>
<path d="M3406 1043 c-3 -4 -6 -44 -6 -90 0 -82 0 -83 25 -83 24 0 25 2 25 71
0 62 2 70 18 67 13 -2 18 -17 22 -68 5 -61 6 -65 30 -65 24 0 25 2 25 64 0 41
4 66 12 68 19 7 35 -35 32 -85 -3 -44 -2 -47 21 -47 24 0 25 2 25 71 0 99 -4
102 -124 103 -54 0 -101 -3 -105 -6z"/>
<path d="M3687 1043 c-4 -3 -7 -57 -7 -120 l0 -113 25 0 c22 0 25 4 25 33 0
31 2 33 29 29 71 -10 111 99 56 153 -19 20 -34 25 -73 25 -27 0 -52 -3 -55 -7z
m79 -41 c16 -10 26 -46 18 -66 -3 -9 -17 -16 -30 -16 -22 0 -24 4 -24 45 0 44
10 55 36 37z"/>
</g>
</svg>
