<?xml version="1.0" standalone="no"?>
<!DOCTYPE svg PUBLIC "-//W3C//DTD SVG 20010904//EN"
 "http://www.w3.org/TR/2001/REC-SVG-20010904/DTD/svg10.dtd">
<svg version="1.0" xmlns="http://www.w3.org/2000/svg"
 width="246.000000pt" height="302.000000pt" viewBox="0 0 246.000000 302.000000"
 preserveAspectRatio="xMidYMid meet">

<g transform="translate(0.000000,302.000000) scale(0.100000,-0.100000)"
fill="#000000" stroke="none">
<path d="M1204 2809 c-51 -25 -70 -115 -34 -162 l20 -25 -106 -255 -107 -255
-35 10 c-64 18 -180 5 -249 -26 -77 -35 -153 -113 -191 -193 -36 -79 -38 -209
-3 -295 51 -130 184 -227 324 -236 40 -2 89 0 109 6 l36 10 21 -48 c26 -59 26
-56 1 -87 -37 -47 -22 -126 30 -156 92 -55 200 36 159 134 -14 34 -62 69 -95
69 -16 0 -27 13 -43 51 -13 28 -21 52 -19 53 2 2 23 16 48 33 25 17 60 50 79
73 39 49 80 142 81 183 l0 27 270 0 271 0 38 -40 c44 -46 85 -53 137 -21 66
40 66 142 0 182 -48 29 -98 25 -135 -12 -17 -17 -31 -35 -31 -40 0 -5 -113 -9
-274 -9 l-273 0 -6 39 c-12 89 -82 194 -171 257 l-30 20 104 251 105 251 37 6
c77 12 116 109 70 172 -31 41 -91 55 -138 33z"/>
<path d="M427 1015 c-31 -35 -57 -66 -57 -70 0 -3 12 -17 27 -29 l28 -24 60
51 c33 28 63 54 67 57 5 3 -9 23 -30 43 l-37 37 -58 -65z"/>
<path d="M326 853 c-26 -4 -28 -7 -22 -35 3 -17 6 -39 6 -49 0 -18 6 -19 78
-13 67 6 80 4 99 -12 12 -11 23 -27 25 -38 3 -16 -5 -18 -67 -20 -38 -1 -87
-10 -107 -19 -71 -30 -100 -126 -59 -193 31 -52 90 -68 219 -61 59 3 114 8
122 11 23 9 18 311 -5 360 -25 53 -82 76 -181 75 -43 -1 -92 -4 -108 -6z"/>
<path d="M796 850 c-92 -30 -142 -104 -140 -212 1 -52 7 -76 27 -111 36 -61
84 -81 177 -75 l72 5 -7 -26 c-9 -37 -22 -49 -62 -60 -29 -8 -91 -4 -152 11
-15 3 -28 -29 -30 -73 -1 -24 4 -27 56 -38 162 -32 274 13 302 122 6 27 11
128 11 245 0 198 0 200 -22 206 -40 12 -202 16 -232 6z"/>
<path d="M1605 847 c-28 -7 -56 -17 -63 -21 -9 -5 -12 -61 -12 -207 l0 -199
60 0 60 0 0 164 0 164 30 7 c16 3 49 3 73 0 l44 -7 7 47 c4 26 5 49 3 52 -12
11 -156 11 -202 0z"/>
<path d="M1913 853 c-28 -4 -33 -8 -33 -31 0 -69 4 -72 90 -65 70 5 79 4 99
-16 11 -11 21 -29 21 -39 0 -15 -10 -18 -72 -18 -125 -1 -184 -49 -181 -146 2
-48 15 -71 55 -100 30 -21 44 -23 148 -23 63 0 127 3 143 8 l27 7 0 153 c0
129 -3 159 -20 195 -32 71 -118 95 -277 75z"/>
<path d="M1192 829 c-115 -57 -155 -199 -88 -313 37 -63 93 -97 170 -103 53
-4 69 -1 116 24 75 38 112 93 118 172 5 72 -10 121 -51 168 -64 72 -178 95
-265 52z"/>
<path d="M1477 394 c-16 -16 -6 -35 16 -32 12 2 22 10 22 18 0 16 -26 25 -38
14z"/>
<path d="M1150 285 c0 -81 10 -95 70 -95 l50 0 0 75 c0 68 -2 75 -20 75 -18 0
-20 -7 -20 -61 0 -52 -2 -60 -17 -57 -14 2 -19 16 -23 58 -4 42 -9 56 -22 58
-15 3 -18 -5 -18 -53z"/>
<path d="M1323 333 c-9 -3 -13 -28 -13 -74 0 -62 2 -69 20 -69 18 0 20 7 20
61 0 52 2 60 18 57 13 -2 18 -16 22 -58 4 -45 9 -56 25 -58 18 -3 20 2 17 60
-2 43 -8 67 -20 76 -16 12 -65 15 -89 5z"/>
<path d="M1470 265 c0 -68 2 -75 20 -75 18 0 20 7 20 75 0 68 -2 75 -20 75
-18 0 -20 -7 -20 -75z"/>
<path d="M1570 320 c-29 -29 -30 -82 -3 -112 21 -23 93 -25 93 -3 0 8 -9 15
-19 15 -36 0 -51 12 -51 41 0 28 30 56 44 41 9 -8 27 19 20 30 -10 16 -64 8
-84 -12z"/>
<path d="M1690 319 c0 -15 5 -19 19 -14 21 6 51 -3 51 -16 0 -5 -13 -9 -29 -9
-38 0 -64 -25 -55 -54 10 -30 23 -37 74 -34 l45 3 3 52 c4 64 -19 93 -73 93
-29 0 -35 -4 -35 -21z m70 -84 c0 -16 -35 -21 -44 -6 -8 12 4 21 26 21 10 0
18 -7 18 -15z"/>
<path d="M1853 333 c-9 -3 -13 -28 -13 -74 0 -62 2 -69 20 -69 18 0 20 7 20
54 0 30 4 57 9 61 15 9 31 -29 31 -74 0 -35 3 -41 21 -41 19 0 21 5 17 55 -2
46 0 55 13 55 21 0 29 -20 29 -71 0 -33 3 -39 21 -39 20 0 21 4 17 60 -2 33
-10 66 -16 72 -12 12 -145 20 -169 11z"/>
<path d="M2082 332 c-9 -6 -12 -33 -10 -98 3 -75 6 -89 21 -92 12 -3 17 3 17
22 0 22 5 26 28 26 40 0 62 19 68 62 5 30 2 41 -19 62 -26 26 -78 35 -105 18z
m84 -59 c8 -29 -16 -59 -40 -50 -15 6 -23 66 -10 79 12 13 45 -6 50 -29z"/>
</g>
</svg>
