<?xml version="1.0" encoding="UTF-8" standalone="no"?>
<!-- Created with Inkscape (http://www.inkscape.org/) -->

<svg
   xmlns:dc="http://purl.org/dc/elements/1.1/"
   xmlns:cc="http://creativecommons.org/ns#"
   xmlns:rdf="http://www.w3.org/1999/02/22-rdf-syntax-ns#"
   xmlns:svg="http://www.w3.org/2000/svg"
   xmlns="http://www.w3.org/2000/svg"
   xmlns:sodipodi="http://sodipodi.sourceforge.net/DTD/sodipodi-0.dtd"
   xmlns:inkscape="http://www.inkscape.org/namespaces/inkscape"
   width="41mm"
   height="54mm"
   viewBox="0 0 41 54"
   version="1.1"
   id="svg4785"
   inkscape:version="0.92.1 r15371"
   sodipodi:docname="agora-svg.svg">
  <defs
     id="defs4779" />
  <sodipodi:namedview
     id="base"
     pagecolor="#ffffff"
     bordercolor="#666666"
     borderopacity="1.0"
     inkscape:pageopacity="0.0"
     inkscape:pageshadow="2"
     inkscape:zoom="2"
     inkscape:cx="-76.357438"
     inkscape:cy="134.68294"
     inkscape:document-units="mm"
     inkscape:current-layer="layer1"
     showgrid="false"
     inkscape:window-width="1920"
     inkscape:window-height="1057"
     inkscape:window-x="2552"
     inkscape:window-y="-8"
     inkscape:window-maximized="1" />
  <metadata
     id="metadata4782">
    <rdf:RDF>
      <cc:Work
         rdf:about="">
        <dc:format>image/svg+xml</dc:format>
        <dc:type
           rdf:resource="http://purl.org/dc/dcmitype/StillImage" />
        <dc:title></dc:title>
      </cc:Work>
    </rdf:RDF>
  </metadata>
  <g
     inkscape:label="Camada 1"
     inkscape:groupmode="layer"
     id="layer1"
     transform="translate(0,-243)">
    <g
       transform="matrix(0.26458333,0,0,0.26458333,-97.69544,232.98202)"
       id="Layer1004">
      <g
         id="Layer1005">
        <path
           d="m 448.0552,39.6962 c 4.6111,0 8.3491,3.7382 8.3491,8.3492 0,4.6111 -3.738,8.3492 -8.3491,8.3492 -4.6112,0 -8.3492,-3.7381 -8.3492,-8.3492 0,-4.611 3.738,-8.3492 8.3492,-8.3492 z"
           style="fill:#ff7e29;fill-rule:evenodd"
           id="path56"
           inkscape:connector-curvature="0" />
        <path
           d="m 495.3544,111.7949 c 4.6111,0 8.3492,3.738 8.3492,8.3491 0,4.611 -3.7381,8.3492 -8.3492,8.3492 -4.6111,0 -8.3492,-3.7382 -8.3492,-8.3492 0,-4.6111 3.7381,-8.3491 8.3492,-8.3491 z"
           style="fill:#1eb04e;fill-rule:evenodd"
           id="path58"
           inkscape:connector-curvature="0" />
        <path
           d="m 434.7442,153.9605 c 4.6111,0 8.3492,3.7381 8.3492,8.3492 0,4.611 -3.7381,8.3492 -8.3492,8.3492 -4.6111,0 -8.3492,-3.7382 -8.3492,-8.3492 0,-4.6111 3.7381,-8.3492 8.3492,-8.3492 z"
           style="fill:#09a2e6;fill-rule:evenodd"
           id="path60"
           inkscape:connector-curvature="0" />
        <path
           d="m 448.0552,44.7058 c 1.8443,0 3.3396,1.4952 3.3396,3.3396 0,1.8445 -1.4953,3.3398 -3.3396,3.3398 -1.8446,0 -3.3397,-1.4953 -3.3397,-3.3398 0,-1.8444 1.4951,-3.3396 3.3397,-3.3396 z"
           style="fill:#c64b00;fill-rule:evenodd"
           id="path62"
           inkscape:connector-curvature="0" />
        <path
           d="m 495.3544,123.4837 c -1.8445,0 -3.3397,-1.4953 -3.3397,-3.3397 0,-1.8445 1.4952,-3.3396 3.3397,-3.3396 1.8444,0 3.3396,1.4951 3.3396,3.3396 0,1.8444 -1.4952,3.3397 -3.3396,3.3397 z"
           style="fill:#115f29;fill-rule:evenodd"
           id="path64"
           inkscape:connector-curvature="0" />
        <path
           d="m 434.7442,165.6493 c -1.8445,0 -3.3396,-1.4953 -3.3396,-3.3396 0,-1.8445 1.4951,-3.3398 3.3396,-3.3398 1.8444,0 3.3396,1.4953 3.3396,3.3398 0,1.8443 -1.4952,3.3396 -3.3396,3.3396 z"
           style="fill:#065c84;fill-rule:evenodd"
           id="path66"
           inkscape:connector-curvature="0" />
        <path
           d="m 449.7836,48.7631 -30.2192,72.0987 -3.4569,-1.4355 30.2192,-72.0986 z"
           style="fill:#c64b00;fill-rule:evenodd"
           id="path68"
           inkscape:connector-curvature="0" />
        <path
           d="m 433.0084,163.0054 -16.9082,-42.1656 3.4715,-1.3915 16.9083,42.1656 z"
           style="fill:#065c84;fill-rule:evenodd"
           id="path70"
           inkscape:connector-curvature="0" />
        <path
           d="M 495.3544,122.019 H 417.836 v -3.7499 h 77.5184 z"
           style="fill:#115f29;fill-rule:evenodd"
           id="path72"
           inkscape:connector-curvature="0" />
        <path
           d="m 417.836,91.5184 c 15.8094,0 28.6257,12.8161 28.6257,28.6256 0,15.8094 -12.8163,28.6257 -28.6257,28.6257 -15.8096,0 -28.6258,-12.8163 -28.6258,-28.6257 0,-15.8095 12.8162,-28.6256 28.6258,-28.6256 z"
           style="fill:#ec1c24;fill-rule:evenodd"
           id="path74"
           inkscape:connector-curvature="0" />
        <path
           d="m 417.836,108.6938 c 6.3238,0 11.4502,5.1264 11.4502,11.4502 0,6.3237 -5.1264,11.4503 -11.4502,11.4503 -6.3239,0 -11.4503,-5.1266 -11.4503,-11.4503 0,-6.3238 5.1264,-11.4502 11.4503,-11.4502 z"
           style="fill:#930d11;fill-rule:evenodd"
           id="path76"
           inkscape:connector-curvature="0" />
      </g>
      <g
         id="Layer1006">
        <path
           d="m 450.7055,187.4007 c 9.2223,0 16.6984,7.4761 16.6984,16.6983 0,9.222 -7.4761,16.6984 -16.6984,16.6984 -9.2222,0 -16.6983,-7.4764 -16.6983,-16.6984 0,-9.2222 7.4761,-16.6983 16.6983,-16.6983 z"
           style="fill:#1eb04e;fill-rule:evenodd"
           id="path79"
           inkscape:connector-curvature="0" />
        <path
           d="m 450.7055,210.7783 c -3.689,0 -6.6792,-2.9906 -6.6792,-6.6793 0,-3.689 2.9902,-6.6793 6.6792,-6.6793 3.6888,0 6.6793,2.9903 6.6793,6.6793 0,3.6887 -2.9905,6.6793 -6.6793,6.6793 z"
           style="fill:#115f29;fill-rule:evenodd"
           id="path81"
           inkscape:connector-curvature="0" />
        <path
           d="m 488.4832,195.779 c -0.8269,-0.2069 -1.7987,-0.4239 -2.9153,-0.6513 -1.1164,-0.2275 -2.3154,-0.3413 -3.5973,-0.3413 -0.579,0 -1.2715,0.0517 -2.078,0.1552 -0.8063,0.1034 -1.4162,0.2172 -1.8296,0.3412 v 24.9341 h -9.2419 v -30.8886 c 1.654,-0.5788 3.6078,-1.1267 5.8614,-1.6437 2.2536,-0.5168 4.7656,-0.7754 7.5362,-0.7754 0.4962,0 1.0958,0.0311 1.7987,0.0931 0.703,0.0621 1.4059,0.1447 2.1089,0.2481 0.7029,0.1035 1.4059,0.2275 2.1088,0.3722 0.703,0.1446 1.3024,0.3204 1.7988,0.5273 z"
           style="fill:#ff7e29;fill-rule:evenodd"
           id="path83"
           inkscape:connector-curvature="0" />
        <g
           id="Layer1007">
          <path
             d="m 505.345,186.7231 c 2.7292,0 5.0034,0.3102 6.8228,0.9306 1.8195,0.6202 3.2771,1.5091 4.3729,2.6669 1.0956,1.1578 1.871,2.5638 2.3259,4.2177 0.4548,1.654 0.6823,3.4943 0.6823,5.5204 v 19.2279 c -1.3233,0.2895 -3.1633,0.6305 -5.5204,1.0234 -2.3568,0.3928 -5.2101,0.5892 -8.5594,0.5892 -2.1088,0 -4.0214,-0.1861 -5.7374,-0.5582 -1.716,-0.3722 -3.1942,-0.9821 -4.4347,-1.8298 -1.2406,-0.8477 -2.1916,-1.9538 -2.8532,-3.3183 -0.6616,-1.3647 -0.9924,-3.0393 -0.9924,-5.0242 0,-1.9021 0.3825,-3.5146 1.1474,-4.8379 0.765,-1.3233 1.7885,-2.3777 3.0703,-3.1633 1.2819,-0.7857 2.7498,-1.3542 4.4038,-1.7057 1.654,-0.3514 3.37,-0.5271 5.1481,-0.5271 1.1992,0 2.2639,0.0517 3.1942,0.1549 0.9305,0.1035 1.6851,0.2378 2.2641,0.4033 v -0.8683 c 0,-1.5714 -0.4756,-2.8327 -1.4267,-3.7836 -0.9509,-0.9511 -2.6051,-1.4267 -4.962,-1.4267 -1.5713,0 -3.1219,0.1137 -4.6518,0.3412 -1.53,0.2275 -2.8533,0.5479 -3.9697,0.9615 l -1.1786,-7.4431 c 0.5376,-0.1655 1.2096,-0.3412 2.0158,-0.5273 0.8065,-0.1861 1.6851,-0.3515 2.6363,-0.4962 0.9509,-0.1446 1.9538,-0.2687 3.0082,-0.3721 1.0543,-0.1034 2.1192,-0.1552 3.1942,-0.1552 z"
             style="fill:#09a2e6;fill-rule:evenodd"
             id="path85"
             inkscape:connector-curvature="0" />
          <path
             d="m 506.0893,213.7662 c 0.9097,0 1.778,-0.0206 2.6051,-0.062 0.8271,-0.0412 1.4885,-0.1033 1.9849,-0.1861 v -7.0089 c -0.3723,-0.0826 -0.9305,-0.1652 -1.6748,-0.2481 -0.7443,-0.0826 -1.4265,-0.124 -2.0467,-0.124 -0.8685,0 -1.6851,0.0517 -2.4502,0.1551 -0.7649,0.1035 -1.4368,0.2998 -2.0158,0.5893 -0.5788,0.2894 -1.0338,0.6823 -1.3645,1.1785 -0.3307,0.4961 -0.4962,1.1164 -0.4962,1.8606 0,1.4474 0.4859,2.45 1.4576,3.0084 0.9718,0.5582 2.3054,0.8372 4.0006,0.8372 z"
             style="fill:#065c84;fill-rule:evenodd"
             id="path87"
             inkscape:connector-curvature="0" />
        </g>
        <path
           d="m 449.2101,236.7302 c -0.5247,0.1517 -1.2009,0.2932 -2.0293,0.4244 -0.8281,0.131 -1.6978,0.1966 -2.609,0.1966 -0.9248,0 -1.6944,-0.1242 -2.3086,-0.3726 -0.6143,-0.2484 -1.1009,-0.597 -1.4599,-1.0457 -0.3588,-0.4486 -0.6142,-0.9836 -0.7661,-1.6047 -0.1517,-0.6212 -0.2278,-1.3045 -0.2278,-2.05 v -6.0668 h 3.0853 v 5.6942 c 0,0.9939 0.1312,1.7117 0.3934,2.1534 0.2623,0.4418 0.7523,0.6625 1.4701,0.6625 0.2209,0 0.4555,-0.0102 0.7041,-0.0309 0.2485,-0.0208 0.4692,-0.0449 0.6626,-0.0726 v -8.4066 h 3.0852 z m 2.8989,-10.1462 c 0.5245,-0.1517 1.2009,-0.2932 2.0293,-0.4244 0.8281,-0.1311 1.6978,-0.1967 2.6088,-0.1967 0.9249,0 1.6944,0.1208 2.3088,0.3624 0.6143,0.2416 1.1009,0.5832 1.4597,1.0248 0.359,0.4419 0.6144,0.9664 0.7661,1.5738 0.1519,0.6074 0.228,1.2837 0.228,2.0292 v 6.1497 h -3.0853 v -5.7769 c 0,-0.9939 -0.1312,-1.698 -0.3934,-2.1122 -0.2623,-0.414 -0.7523,-0.6211 -1.4701,-0.6211 -0.2209,0 -0.4557,0.0103 -0.7041,0.0311 -0.2485,0.0207 -0.4694,0.0448 -0.6626,0.0725 v 8.4066 h -3.0852 z m 15.2811,10.5188 h -3.0852 v -10.8914 h 3.0852 z m 0.29,-14.0387 c 0,0.5659 -0.183,1.0112 -0.5488,1.3355 -0.3658,0.3244 -0.7971,0.4866 -1.2941,0.4866 -0.4969,0 -0.9283,-0.1622 -1.2941,-0.4866 -0.3658,-0.3243 -0.5488,-0.7696 -0.5488,-1.3355 0,-0.566 0.183,-1.0111 0.5488,-1.3356 0.3658,-0.3245 0.7972,-0.4866 1.2941,-0.4866 0.497,0 0.9283,0.1621 1.2941,0.4866 0.3658,0.3245 0.5488,0.7696 0.5488,1.3356 z m 2.0912,8.5931 c 0,-0.787 0.1278,-1.5289 0.383,-2.226 0.2555,-0.6971 0.6247,-1.3045 1.1079,-1.8222 0.4832,-0.5175 1.0697,-0.9283 1.76,-1.2319 0.6903,-0.3038 1.4771,-0.4557 2.3604,-0.4557 0.5799,0 1.1113,0.0518 1.5945,0.1553 0.4832,0.1036 0.9525,0.252 1.408,0.4453 l -0.6419,2.464 c -0.2899,-0.1104 -0.6074,-0.2071 -0.9525,-0.2898 -0.3451,-0.0829 -0.7316,-0.1242 -1.1595,-0.1242 -0.9112,0 -1.591,0.2829 -2.0395,0.8488 -0.4487,0.566 -0.673,1.3113 -0.673,2.2364 0,0.98 0.2105,1.7392 0.6315,2.2775 0.421,0.5384 1.1562,0.8077 2.2052,0.8077 0.3727,0 0.773,-0.0345 1.201,-0.1036 0.4279,-0.069 0.8213,-0.1795 1.1802,-0.3313 l 0.4348,2.5262 c -0.3588,0.1517 -0.8075,0.283 -1.3459,0.3933 -0.5384,0.1104 -1.1319,0.1658 -1.7807,0.1658 -0.9939,0 -1.8497,-0.1485 -2.5675,-0.4453 -0.7179,-0.2968 -1.3079,-0.7005 -1.7704,-1.2112 -0.4624,-0.5109 -0.8007,-1.1147 -1.0146,-1.8118 -0.2139,-0.6971 -0.321,-1.453 -0.321,-2.2673 z m 14.515,3.2921 c 0.3036,0 0.5936,-0.007 0.8697,-0.0207 0.2761,-0.0138 0.4968,-0.0345 0.6626,-0.062 v -2.3399 c -0.1242,-0.0275 -0.3106,-0.0552 -0.5591,-0.0827 -0.2484,-0.0277 -0.4763,-0.0415 -0.6832,-0.0415 -0.29,0 -0.5627,0.0172 -0.818,0.0517 -0.2554,0.0345 -0.4797,0.1002 -0.673,0.1969 -0.1932,0.0965 -0.3451,0.2277 -0.4555,0.3933 -0.1104,0.1657 -0.1657,0.3728 -0.1657,0.6212 0,0.4832 0.1623,0.8179 0.4866,1.0042 0.3245,0.1864 0.7696,0.2795 1.3356,0.2795 z m -0.2484,-9.0279 c 0.911,0 1.6703,0.1036 2.2775,0.3106 0.6074,0.2071 1.0941,0.5039 1.4599,0.8904 0.3658,0.3866 0.6246,0.8558 0.7765,1.408 0.1518,0.5523 0.2278,1.1665 0.2278,1.8429 v 6.4189 c -0.4419,0.0967 -1.0561,0.2105 -1.8429,0.3417 -0.7868,0.1311 -1.7394,0.1967 -2.8575,0.1967 -0.7039,0 -1.3424,-0.0621 -1.9153,-0.1864 -0.5729,-0.1242 -1.0663,-0.3277 -1.4805,-0.6109 -0.4142,-0.2829 -0.7316,-0.6521 -0.9524,-1.1076 -0.2209,-0.4556 -0.3313,-1.0146 -0.3313,-1.6772 0,-0.6351 0.1276,-1.1735 0.3831,-1.6151 0.2553,-0.4417 0.597,-0.7939 1.0248,-1.0561 0.428,-0.2623 0.918,-0.4521 1.4702,-0.5693 0.5521,-0.1174 1.125,-0.176 1.7186,-0.176 0.4003,0 0.7558,0.0172 1.0663,0.0516 0.3106,0.0345 0.5626,0.0794 0.7559,0.1346 v -0.2898 c 0,-0.5247 -0.1587,-0.9457 -0.4762,-1.2631 -0.3176,-0.3175 -0.8697,-0.4762 -1.6567,-0.4762 -0.5245,0 -1.042,0.0379 -1.5529,0.1138 -0.5107,0.076 -0.9524,0.183 -1.3252,0.321 l -0.3933,-2.4848 c 0.1794,-0.0552 0.4037,-0.1138 0.6728,-0.176 0.2693,-0.062 0.5627,-0.1174 0.8801,-0.1655 0.3175,-0.0484 0.6522,-0.0899 1.0043,-0.1244 0.352,-0.0345 0.7074,-0.0518 1.0664,-0.0518 z m 13.521,5.4045 c 0,-0.9939 -0.1277,-1.698 -0.3829,-2.1122 -0.2555,-0.414 -0.6937,-0.6211 -1.315,-0.6211 -0.1932,0 -0.3933,0.0103 -0.6004,0.0311 -0.207,0.0207 -0.4073,0.0448 -0.6005,0.0725 v 8.4066 h -3.0852 V 226.584 c 0.2622,-0.0689 0.5694,-0.1415 0.9214,-0.2173 0.352,-0.0759 0.7248,-0.1449 1.1181,-0.2071 0.3935,-0.062 0.7972,-0.1104 1.2114,-0.1449 0.414,-0.0345 0.8213,-0.0518 1.2216,-0.0518 0.7869,0 1.4254,0.1001 1.9154,0.3002 0.49,0.2003 0.8938,0.4383 1.2112,0.7144 0.4419,-0.3175 0.9491,-0.5659 1.5219,-0.7455 0.5729,-0.1794 1.101,-0.2691 1.584,-0.2691 0.8697,0 1.584,0.1208 2.1431,0.3624 0.5591,0.2416 1.0043,0.5832 1.3356,1.0248 0.3313,0.4419 0.5591,0.9664 0.6833,1.5738 0.1242,0.6074 0.1864,1.2837 0.1864,2.0292 v 6.1497 h -3.0852 v -5.7769 c 0,-0.9939 -0.1277,-1.698 -0.3831,-2.1122 -0.2554,-0.414 -0.6937,-0.6211 -1.3149,-0.6211 -0.1656,0 -0.3968,0.0414 -0.6936,0.1242 -0.2967,0.0829 -0.5418,0.1864 -0.7352,0.3107 0.0967,0.3174 0.1589,0.6521 0.1864,1.0041 0.0277,0.352 0.0416,0.7282 0.0416,1.1285 v 5.9427 h -3.0854 z m 18.8427,0.414 c 0,-0.9524 -0.214,-1.7151 -0.6419,-2.288 -0.428,-0.5729 -1.0629,-0.8593 -1.9051,-0.8593 -0.2759,0 -0.5313,0.0103 -0.7661,0.0311 -0.2346,0.0207 -0.4278,0.0448 -0.5797,0.0725 v 5.5698 c 0.1932,0.1242 0.4452,0.2278 0.7559,0.3107 0.3104,0.0828 0.6245,0.1242 0.9421,0.1242 1.4632,0 2.1948,-0.9869 2.1948,-2.961 z m 3.1473,-0.0827 c 0,0.842 -0.1036,1.6081 -0.3106,2.2982 -0.2071,0.6903 -0.5107,1.2838 -0.9111,1.7809 -0.4003,0.4968 -0.8972,0.8833 -1.4909,1.1594 -0.5936,0.2761 -1.2768,0.4142 -2.0498,0.4142 -0.428,0 -0.8283,-0.0414 -1.201,-0.1242 -0.3726,-0.0829 -0.7316,-0.2003 -1.0767,-0.352 v 4.0998 h -3.0852 V 226.584 c 0.2761,-0.0827 0.5935,-0.1621 0.9525,-0.238 0.3588,-0.076 0.735,-0.1415 1.1285,-0.1967 0.3933,-0.0553 0.7937,-0.1001 1.2008,-0.1346 0.4074,-0.0345 0.7973,-0.0518 1.1701,-0.0518 0.8972,0 1.6978,0.1347 2.4018,0.4038 0.7041,0.2691 1.2976,0.6487 1.7808,1.1388 0.4831,0.49 0.8523,1.0871 1.1077,1.7911 0.2554,0.7041 0.3831,1.4909 0.3831,2.3606 z"
           style="fill:#09a2e6;fill-rule:evenodd"
           id="path90"
           inkscape:connector-curvature="0" />
        <g
           id="Layer1008">
          <path
             d="m 395.8179,175.8689 -10.2031,8.6214 -4.2486,-3.7835 8.7764,-10.0482 z"
             style="fill:#ec1c24;fill-rule:evenodd"
             id="path92"
             inkscape:connector-curvature="0" />
          <path
             d="m 387.2585,186.7231 c 2.7291,0 5.0033,0.3102 6.8228,0.9306 1.8194,0.6202 3.2771,1.5091 4.3729,2.6669 1.0956,1.1578 1.8709,2.5638 2.3259,4.2177 0.4548,1.654 0.6822,3.4943 0.6822,5.5204 v 19.2279 c -1.3232,0.2895 -3.1633,0.6305 -5.5203,1.0234 -2.3569,0.3928 -5.2101,0.5892 -8.5595,0.5892 -2.1088,0 -4.0213,-0.1861 -5.7373,-0.5582 -1.7161,-0.3722 -3.1943,-0.9821 -4.4347,-1.8298 -1.2407,-0.8477 -2.1916,-1.9538 -2.8533,-3.3183 -0.6616,-1.3647 -0.9923,-3.0393 -0.9923,-5.0242 0,-1.9021 0.3824,-3.5146 1.1473,-4.8379 0.7651,-1.3233 1.7885,-2.3777 3.0704,-3.1633 1.2819,-0.7857 2.7498,-1.3542 4.4038,-1.7057 1.654,-0.3514 3.37,-0.5271 5.148,-0.5271 1.1992,0 2.2639,0.0517 3.1943,0.1549 0.9305,0.1035 1.6851,0.2378 2.2641,0.4033 v -0.8683 c 0,-1.5714 -0.4756,-2.8327 -1.4267,-3.7836 -0.951,-0.9511 -2.6052,-1.4267 -4.962,-1.4267 -1.5714,0 -3.1219,0.1137 -4.6519,0.3412 -1.5299,0.2275 -2.8532,0.5479 -3.9696,0.9615 l -1.1786,-7.4431 c 0.5376,-0.1655 1.2095,-0.3412 2.0158,-0.5273 0.8065,-0.1861 1.6851,-0.3515 2.6362,-0.4962 0.951,-0.1446 1.9538,-0.2687 3.0082,-0.3721 1.0544,-0.1034 2.1193,-0.1552 3.1943,-0.1552 z"
             style="fill:#ec1c24;fill-rule:evenodd"
             id="path94"
             inkscape:connector-curvature="0" />
          <path
             d="m 388.0027,213.7662 c 0.9098,0 1.7781,-0.0206 2.6052,-0.062 0.827,-0.0412 1.4885,-0.1033 1.9849,-0.1861 v -7.0089 c -0.3724,-0.0826 -0.9306,-0.1652 -1.6748,-0.2481 -0.7443,-0.0826 -1.4265,-0.124 -2.0468,-0.124 -0.8685,0 -1.6851,0.0517 -2.4501,0.1551 -0.7649,0.1035 -1.4369,0.2998 -2.0159,0.5893 -0.5788,0.2894 -1.0337,0.6823 -1.3644,1.1785 -0.3308,0.4961 -0.4962,1.1164 -0.4962,1.8606 0,1.4474 0.4858,2.45 1.4576,3.0084 0.9717,0.5582 2.3053,0.8372 4.0005,0.8372 z"
             style="fill:#930d11;fill-rule:evenodd"
             id="path96"
             inkscape:connector-curvature="0" />
        </g>
        <g
           id="Layer1009">
          <path
             d="m 432.5898,216.1233 c 0,5.3341 -1.3542,9.2934 -4.0625,11.8779 -2.7086,2.5843 -6.8952,3.8765 -12.5602,3.8765 -1.9847,0 -3.9697,-0.1758 -5.9544,-0.5273 -1.9849,-0.3513 -3.8249,-0.8166 -5.5203,-1.3954 l 1.6127,-7.7532 c 1.4472,0.5788 2.9668,1.0336 4.5588,1.3645 1.5919,0.3307 3.4011,0.4962 5.4272,0.4962 2.6464,0 4.5175,-0.5788 5.6133,-1.7366 1.0958,-1.1578 1.6437,-2.6466 1.6437,-4.466 v -1.1784 c -0.9924,0.4549 -2.0158,0.7959 -3.0702,1.0234 -1.0546,0.2275 -2.2019,0.341 -3.4425,0.341 -4.5072,0 -7.9599,-1.3333 -10.3581,-4.0005 -2.3985,-2.6671 -3.5975,-6.399 -3.5975,-11.1955 0,-2.3984 0.3721,-4.5795 1.1164,-6.5438 0.7443,-1.9641 1.8297,-3.649 3.2563,-5.0549 1.4267,-1.4061 3.1736,-2.4914 5.2411,-3.2565 2.0676,-0.7649 4.4038,-1.1475 7.0089,-1.1475 1.1164,0 2.2639,0.0517 3.4424,0.1551 1.1786,0.1035 2.3467,0.2378 3.5045,0.4033 1.1578,0.1653 2.2639,0.3616 3.3183,0.5891 1.0544,0.2275 1.9952,0.4653 2.8221,0.7134 z"
             style="fill:#1eb04e;fill-rule:evenodd"
             id="path99"
             inkscape:connector-curvature="0" />
          <path
             d="m 412.3076,202.8499 c 0,5.1687 2.0881,7.7532 6.2646,7.7532 0.9509,0 1.8401,-0.1243 2.667,-0.3723 0.827,-0.2481 1.5301,-0.5374 2.1089,-0.8684 v -14.762 c -0.4548,-0.0827 -0.9924,-0.155 -1.6126,-0.217 -0.6204,-0.062 -1.3439,-0.0931 -2.1709,-0.0931 -2.4397,0 -4.2592,0.8064 -5.4582,2.419 -1.1992,1.6126 -1.7988,3.6595 -1.7988,6.1406 z"
             style="fill:#115f29;fill-rule:evenodd"
             id="path101"
             inkscape:connector-curvature="0" />
        </g>
      </g>
    </g>
  </g>
</svg>
