<?xml version="1.0" standalone="no"?>
<!DOCTYPE svg PUBLIC "-//W3C//DTD SVG 20010904//EN"
 "http://www.w3.org/TR/2001/REC-SVG-20010904/DTD/svg10.dtd">
<svg version="1.0" xmlns="http://www.w3.org/2000/svg"
 width="794.000000pt" height="1124.000000pt" viewBox="0 0 794.000000 1124.000000"
 preserveAspectRatio="xMidYMid meet">

<g transform="translate(0.000000,1124.000000) scale(0.100000,-0.100000)"
fill="#000000" stroke="none">
<path d="M1695 10791 c-130 -31 -184 -199 -96 -293 l29 -31 -53 -126 c-300
-720 -296 -713 -324 -705 -208 56 -424 11 -578 -119 -152 -129 -227 -294 -226
-492 1 -80 6 -117 27 -182 66 -204 236 -364 446 -418 50 -13 91 -16 180 -12
63 3 127 9 141 12 24 6 27 2 61 -77 l36 -83 -24 -25 c-53 -58 -67 -136 -35
-205 33 -72 86 -105 167 -105 84 0 150 52 173 135 29 109 -60 225 -172 225
-31 0 -33 3 -66 86 -18 47 -29 89 -25 93 5 4 35 24 67 46 69 45 157 139 197
210 31 54 65 155 75 223 l7 42 109 0 c80 0 109 -3 109 -12 0 -7 5 -30 11 -51
8 -31 18 -42 52 -58 44 -19 117 -24 201 -13 l46 7 0 63 c0 72 15 84 40 32 25
-53 62 -73 136 -73 51 0 64 -3 64 -15 -1 -43 -56 -64 -133 -50 -27 6 -52 9
-54 7 -2 -2 -4 -21 -6 -42 -2 -36 0 -39 33 -48 46 -12 148 -5 184 14 54 26 71
61 75 155 4 96 15 106 46 41 68 -144 290 -117 330 40 30 120 -49 225 -170 226
-75 1 -156 -52 -171 -110 -4 -13 -12 -23 -20 -23 -10 0 -14 15 -14 59 0 34 -5
63 -11 67 -18 11 -143 17 -183 10 -46 -9 -101 -57 -116 -101 -14 -41 -30 -46
-30 -10 0 39 -27 83 -62 101 -23 12 -52 15 -114 12 -45 -1 -86 -6 -89 -10 -4
-4 -4 -23 -1 -42 l7 -36 58 6 c65 7 101 -6 101 -36 0 -19 -8 -20 -213 -20
l-214 0 -17 80 c-34 161 -150 329 -279 404 -26 15 -47 33 -47 39 0 9 127 317
322 780 12 27 27 47 37 48 55 2 97 17 131 45 44 38 63 80 62 143 -1 113 -108
198 -217 172z"/>
<path d="M5924 10689 c-51 -25 -70 -115 -34 -162 l20 -25 -106 -255 -107 -255
-35 10 c-64 18 -180 5 -249 -26 -77 -35 -153 -113 -191 -193 -36 -79 -38 -209
-3 -295 51 -130 184 -227 324 -236 40 -2 89 0 109 6 l36 10 21 -48 c26 -59 26
-56 1 -87 -37 -47 -22 -126 30 -156 92 -55 200 36 159 134 -14 34 -62 69 -95
69 -16 0 -27 13 -43 51 -13 28 -21 52 -19 53 2 2 23 16 48 33 25 17 60 50 79
73 39 49 80 142 81 183 l0 27 270 0 271 0 38 -40 c44 -46 85 -53 137 -21 95
58 46 201 -68 201 -27 0 -44 -8 -67 -31 -17 -17 -31 -35 -31 -40 0 -5 -113 -9
-274 -9 l-273 0 -6 39 c-12 89 -82 194 -171 257 l-30 20 104 251 105 251 37 6
c77 12 116 109 70 172 -31 41 -91 55 -138 33z"/>
<path d="M2058 9346 l-47 -53 24 -23 24 -22 56 48 56 48 -30 28 c-16 15 -31
28 -33 27 -2 0 -24 -24 -50 -53z"/>
<path d="M3008 9207 l-38 -11 0 -168 0 -168 50 0 49 0 3 138 3 137 56 -2 57
-3 7 36 c3 20 3 39 0 42 -11 12 -149 11 -187 -1z"/>
<path d="M3267 9213 c-11 -3 -16 -10 -13 -20 3 -8 6 -25 6 -39 0 -23 2 -24 60
-17 65 6 110 -12 110 -45 0 -14 -10 -17 -57 -17 -104 0 -153 -39 -153 -120 0
-77 78 -115 214 -102 101 10 96 3 95 136 0 136 -12 177 -58 208 -28 19 -46 23
-110 22 -42 -1 -84 -3 -94 -6z"/>
<path d="M5147 8895 c-31 -35 -57 -66 -57 -70 0 -3 12 -17 27 -29 l28 -24 60
51 c33 28 63 54 67 57 5 3 -9 23 -30 43 l-37 37 -58 -65z"/>
<path d="M2920 8825 c0 -8 9 -15 20 -15 11 0 20 7 20 15 0 8 -9 15 -20 15 -11
0 -20 -7 -20 -15z"/>
<path d="M2652 8739 c6 -58 18 -70 67 -67 l35 3 1 58 c1 49 -1 57 -17 57 -15
0 -18 -8 -18 -45 0 -33 -4 -45 -15 -45 -11 0 -15 12 -15 45 0 39 -3 45 -21 45
-20 0 -21 -4 -17 -51z"/>
<path d="M2790 8730 c0 -47 3 -60 15 -60 11 0 15 11 15 43 0 48 5 58 26 50 9
-3 14 -21 14 -49 0 -32 4 -44 15 -44 11 0 15 12 15 48 0 58 -12 72 -62 72
l-38 0 0 -60z"/>
<path d="M2920 8730 c0 -47 3 -60 15 -60 12 0 15 13 15 60 0 47 -3 60 -15 60
-12 0 -15 -13 -15 -60z"/>
<path d="M2996 8768 c-20 -28 -20 -48 0 -76 12 -17 24 -22 47 -20 39 4 42 22
6 26 -17 2 -29 11 -32 23 -6 23 20 52 39 45 8 -3 14 1 14 9 0 24 -56 19 -74
-7z"/>
<path d="M3100 8775 c0 -8 6 -12 14 -9 8 3 23 1 33 -4 19 -11 12 -17 -32 -24
-13 -2 -21 -12 -23 -30 -3 -22 2 -29 21 -33 14 -4 36 -5 48 -3 20 2 24 10 27
46 2 24 -2 50 -9 58 -16 19 -79 19 -79 -1z m60 -63 c0 -14 -11 -21 -26 -15
-21 8 -17 23 6 23 11 0 20 -4 20 -8z"/>
<path d="M3220 8730 c0 -47 3 -60 15 -60 11 0 15 11 15 43 0 24 3 47 7 50 14
14 33 -17 33 -54 0 -28 4 -39 15 -39 11 0 15 12 15 45 0 33 4 45 15 45 11 0
15 -12 15 -45 0 -34 4 -45 15 -45 13 0 15 11 13 58 l-3 57 -77 3 -78 3 0 -61z"/>
<path d="M3420 8711 c0 -65 3 -81 15 -81 8 0 15 9 15 19 0 14 8 21 27 23 39 4
59 47 41 86 -11 22 -21 28 -56 30 l-42 3 0 -80z m54 53 c10 -4 16 -18 16 -35
0 -22 -5 -29 -20 -29 -16 0 -20 7 -20 35 0 38 0 38 24 29z"/>
<path d="M5046 8733 c-26 -4 -28 -7 -22 -35 3 -17 6 -39 6 -49 0 -18 6 -19 78
-13 67 6 80 4 99 -12 12 -11 23 -27 25 -38 3 -16 -5 -18 -67 -20 -38 -1 -87
-10 -107 -19 -71 -30 -100 -126 -59 -193 31 -52 90 -68 219 -61 59 3 114 8
122 11 23 9 18 311 -5 360 -25 53 -82 76 -181 75 -43 -1 -92 -4 -108 -6z"/>
<path d="M5516 8730 c-92 -30 -142 -104 -140 -212 1 -52 7 -76 27 -111 36 -61
84 -81 177 -75 l72 5 -7 -26 c-9 -37 -22 -49 -62 -60 -29 -8 -91 -4 -152 11
-15 3 -28 -29 -30 -73 -1 -24 4 -27 56 -38 162 -32 274 13 302 122 6 27 11
128 11 245 0 198 0 200 -22 206 -40 12 -202 16 -232 6z"/>
<path d="M6325 8727 c-28 -7 -56 -17 -63 -21 -9 -5 -12 -61 -12 -207 l0 -199
60 0 60 0 0 164 0 164 30 7 c16 3 49 3 73 0 l44 -7 7 47 c4 26 5 49 3 52 -12
11 -156 11 -202 0z"/>
<path d="M6633 8733 c-28 -4 -33 -8 -33 -31 0 -69 4 -72 90 -65 70 5 79 4 99
-16 11 -11 21 -29 21 -39 0 -15 -10 -18 -72 -18 -125 -1 -184 -49 -181 -146 2
-48 15 -71 55 -100 30 -21 44 -23 148 -23 63 0 127 3 143 8 l27 7 0 153 c0
129 -3 159 -20 195 -32 71 -118 95 -277 75z"/>
<path d="M5912 8709 c-115 -57 -155 -199 -88 -313 37 -63 93 -97 170 -103 53
-4 69 -1 116 24 75 38 112 93 118 172 5 72 -10 121 -51 168 -64 72 -178 95
-265 52z"/>
<path d="M6197 8274 c-16 -16 -6 -35 16 -32 12 2 22 10 22 18 0 16 -26 25 -38
14z"/>
<path d="M5870 8165 c0 -81 10 -95 70 -95 l50 0 0 75 c0 68 -2 75 -20 75 -18
0 -20 -7 -20 -61 0 -52 -2 -60 -17 -57 -14 2 -19 16 -23 58 -4 42 -9 56 -22
58 -15 3 -18 -5 -18 -53z"/>
<path d="M6043 8213 c-9 -3 -13 -28 -13 -74 0 -62 2 -69 20 -69 18 0 20 7 20
61 0 52 2 60 18 57 13 -2 18 -16 22 -58 4 -45 9 -56 25 -58 18 -3 20 2 17 60
-2 43 -8 67 -20 76 -16 12 -65 15 -89 5z"/>
<path d="M6190 8145 c0 -68 2 -75 20 -75 18 0 20 7 20 75 0 68 -2 75 -20 75
-18 0 -20 -7 -20 -75z"/>
<path d="M6290 8200 c-29 -29 -30 -82 -3 -112 21 -23 93 -25 93 -3 0 8 -9 15
-19 15 -36 0 -51 12 -51 41 0 28 30 56 44 41 9 -8 27 19 20 30 -10 16 -64 8
-84 -12z"/>
<path d="M6410 8199 c0 -15 5 -19 19 -14 21 6 51 -3 51 -16 0 -5 -13 -9 -29
-9 -38 0 -64 -25 -55 -54 10 -30 23 -37 74 -34 l45 3 3 52 c4 64 -19 93 -73
93 -29 0 -35 -4 -35 -21z m70 -84 c0 -16 -35 -21 -44 -6 -8 12 4 21 26 21 10
0 18 -7 18 -15z"/>
<path d="M6573 8213 c-9 -3 -13 -28 -13 -74 0 -62 2 -69 20 -69 18 0 20 7 20
54 0 30 4 57 9 61 15 9 31 -29 31 -74 0 -35 3 -41 21 -41 19 0 21 5 17 55 -2
46 0 55 13 55 21 0 29 -20 29 -71 0 -33 3 -39 21 -39 20 0 21 4 17 60 -2 33
-10 66 -16 72 -12 12 -145 20 -169 11z"/>
<path d="M6802 8212 c-9 -6 -12 -33 -10 -98 3 -75 6 -89 21 -92 12 -3 17 3 17
22 0 22 5 26 28 26 40 0 62 19 68 62 5 30 2 41 -19 62 -26 26 -78 35 -105 18z
m84 -59 c8 -29 -16 -59 -40 -50 -15 6 -23 66 -10 79 12 13 45 -6 50 -29z"/>
<path d="M0 3750 l0 -3740 3970 0 3970 0 0 3740 0 3740 -3970 0 -3970 0 0
-3740z m2054 3200 c30 -11 66 -65 66 -98 0 -55 -41 -98 -105 -112 -28 -5 -35
-18 -132 -250 -56 -135 -102 -250 -103 -255 0 -6 16 -19 36 -30 74 -39 145
-149 162 -247 l8 -43 267 -3 267 -2 22 34 c25 38 55 56 93 56 103 0 152 -124
75 -192 -51 -46 -141 -32 -168 26 l-12 26 -273 0 -274 0 -6 -45 c-12 -88 -87
-200 -165 -247 -21 -12 -38 -22 -40 -23 -1 -1 7 -25 19 -52 18 -44 26 -52 55
-58 108 -20 128 -162 30 -209 -29 -14 -43 -15 -76 -6 -73 20 -105 115 -59 174
20 26 20 28 4 74 l-17 48 -112 -1 c-100 0 -117 3 -168 27 -196 92 -278 313
-187 508 51 110 143 185 260 210 55 12 158 10 190 -4 13 -6 24 12 57 91 23 54
70 167 106 252 l65 155 -20 27 c-21 30 -26 98 -9 129 22 42 91 61 144 40z
m3995 -16 c73 -61 39 -178 -56 -193 l-37 -6 -104 -250 -105 -249 24 -16 c88
-56 163 -166 175 -254 l7 -46 273 0 c263 0 273 1 279 20 11 34 54 60 99 60 48
0 80 -19 101 -60 25 -49 19 -88 -19 -126 -29 -29 -41 -34 -79 -34 -48 0 -91
25 -102 60 -6 19 -16 20 -279 20 l-273 0 -6 -45 c-13 -90 -107 -226 -178 -255
-16 -7 -28 -18 -26 -24 38 -95 37 -93 76 -100 55 -8 86 -46 86 -105 0 -60 -24
-97 -73 -112 -47 -14 -101 6 -127 45 -24 36 -21 98 5 134 21 28 21 28 2 73
l-20 45 -89 -4 c-113 -5 -180 13 -257 70 -235 174 -196 531 71 656 52 24 69
27 171 27 l113 0 46 110 c25 61 72 171 103 245 57 134 57 134 39 160 -28 38
-32 80 -12 120 33 64 117 81 172 34z m-806 -1752 l38 -39 -71 -58 -71 -58 -24
23 c-14 13 -25 28 -25 32 0 7 110 138 115 138 1 0 18 -17 38 -38z m-3965 -5
l32 -33 -68 -56 -68 -56 -28 25 -28 24 23 27 c51 58 93 102 99 102 3 0 20 -15
38 -33z m3 -187 c48 -13 86 -56 98 -110 15 -64 14 -307 -1 -316 -6 -4 -66 -9
-133 -12 -110 -4 -125 -3 -164 17 -95 49 -94 184 2 233 30 15 60 20 114 21 77
0 85 6 58 44 -20 28 -73 38 -136 25 -56 -11 -57 -10 -61 53 -3 38 -2 40 32 46
57 10 152 10 191 -1z m456 -1 l63 -11 0 -207 c0 -119 -5 -223 -11 -246 -29
-104 -150 -148 -309 -114 l-52 11 7 47 c9 60 11 62 43 50 15 -6 56 -12 90 -12
58 -2 66 0 88 26 13 15 24 37 24 48 0 16 -4 18 -27 12 -45 -13 -116 -7 -155
11 -102 49 -125 234 -41 327 57 64 144 82 280 58z m821 -3 c6 -3 5 -26 0 -54
l-10 -49 -69 5 -69 5 -2 -169 -3 -169 -60 0 -60 0 -3 207 -2 207 62 15 c59 15
194 16 216 2z m334 -10 c58 -38 63 -56 66 -242 l4 -171 -48 -7 c-99 -13 -215
-7 -259 14 -50 24 -65 53 -65 121 0 44 4 55 33 84 37 37 108 57 175 48 37 -5
42 -3 42 14 0 51 -68 75 -157 55 l-42 -10 -7 45 c-3 24 -3 48 2 53 27 26 215
23 256 -4z m2384 4 c67 -33 78 -66 82 -248 2 -85 0 -158 -4 -162 -5 -5 -50
-14 -101 -21 -112 -15 -188 -2 -236 40 -26 24 -31 36 -35 87 -4 54 -1 63 23
92 33 40 118 67 182 58 40 -5 43 -4 43 18 0 45 -53 62 -139 46 -30 -5 -55 -9
-56 -8 -2 2 -6 26 -10 55 -7 51 -6 52 22 56 15 2 64 5 107 6 62 1 89 -4 122
-19z m472 4 c22 -6 22 -7 22 -223 0 -269 -12 -303 -113 -346 -69 -28 -276 -12
-263 22 3 8 9 33 12 54 5 32 10 39 23 33 9 -4 50 -9 92 -12 68 -4 79 -2 98 17
12 12 21 32 21 45 0 23 -2 24 -34 14 -44 -14 -116 -2 -158 25 -43 29 -69 84
-75 160 -4 54 -1 69 24 117 23 46 37 60 83 83 52 27 60 28 150 23 52 -3 105
-8 118 -12z m751 10 c33 -7 37 -20 25 -82 l-6 -31 -69 6 -69 6 0 -172 0 -171
-65 0 -65 0 0 209 0 208 53 16 c55 16 144 21 196 11z m355 -14 c16 -8 39 -28
50 -43 19 -26 21 -45 24 -201 l4 -173 -44 -7 c-118 -16 -147 -17 -201 -7 -76
14 -114 41 -128 93 -25 93 18 156 120 178 33 7 76 9 95 6 42 -8 48 7 17 45
-16 20 -28 24 -73 23 -29 0 -65 -3 -80 -7 -25 -7 -28 -5 -33 30 -11 66 -11 67
20 74 50 12 197 5 229 -11z m-4726 -6 c150 -62 182 -263 58 -371 -46 -41 -96
-56 -167 -51 -147 11 -240 172 -178 308 27 60 45 79 104 106 59 28 129 31 183
8z m3980 -3 c81 -42 124 -111 124 -200 0 -68 -20 -116 -64 -157 -50 -48 -90
-64 -158 -64 -128 0 -220 91 -220 220 0 84 46 161 119 200 49 26 149 27 199 1z
m-3840 -454 c4 -20 -25 -34 -40 -19 -15 15 -1 44 19 40 10 -2 19 -11 21 -21z
m3967 -2 c0 -30 -39 -27 -43 3 -3 20 0 23 20 20 15 -2 23 -10 23 -23z m-4295
-96 c4 -40 9 -55 22 -57 14 -3 17 6 20 55 2 46 7 59 21 61 15 3 17 -6 17 -72
l0 -76 -50 0 c-60 0 -70 14 -70 93 0 47 3 55 18 53 13 -2 18 -15 22 -57z m230
41 c15 -15 20 -33 20 -75 0 -51 -2 -55 -24 -55 -19 0 -23 4 -19 20 3 11 2 36
-1 55 -5 26 -12 35 -26 35 -17 0 -20 -7 -20 -55 0 -48 -2 -55 -20 -55 -18 0
-20 7 -20 69 0 58 3 70 18 74 40 11 73 6 92 -13z m98 -58 c3 -71 3 -72 -22
-72 -25 0 -26 2 -26 68 0 74 3 81 28 78 14 -2 18 -17 20 -74z m140 56 c3 -14
-3 -18 -28 -18 -35 0 -45 -17 -36 -56 6 -22 11 -25 36 -22 24 4 30 1 30 -14 0
-18 -14 -22 -55 -18 -59 6 -77 91 -28 130 32 25 76 23 81 -2z m133 1 c5 -8 9
-40 9 -71 l0 -58 -47 0 c-53 0 -70 7 -73 30 -6 41 0 50 40 56 49 8 53 24 5 24
-29 0 -35 4 -35 21 0 20 4 21 46 16 26 -2 50 -11 55 -18z m235 -4 c8 -10 14
-43 14 -72 0 -46 -3 -53 -20 -53 -17 0 -20 7 -20 39 0 49 -8 71 -26 71 -10 0
-14 -15 -14 -55 0 -48 -2 -55 -20 -55 -17 0 -20 7 -20 39 0 49 -8 71 -26 71
-10 0 -14 -15 -14 -55 0 -48 -2 -55 -20 -55 -18 0 -20 7 -20 69 0 46 4 71 13
74 6 3 45 4 86 3 59 -2 76 -6 87 -21z m159 0 c46 -45 23 -125 -36 -125 -24 0
-29 -4 -29 -25 0 -19 -5 -25 -23 -25 -23 0 -23 2 -23 93 1 99 4 105 59 106 17
1 37 -9 52 -24z m2977 -32 c2 -46 7 -59 21 -61 15 -3 17 5 17 57 0 54 2 61 20
61 18 0 20 -7 20 -75 0 -71 -1 -75 -22 -76 -13 0 -31 -2 -40 -4 -32 -6 -60 27
-65 77 -7 58 0 78 26 78 17 0 20 -8 23 -57z m229 41 c7 -9 15 -42 17 -75 4
-58 4 -59 -22 -59 -25 0 -26 2 -26 55 0 48 -2 55 -20 55 -18 0 -20 -7 -20 -55
0 -48 -2 -55 -20 -55 -18 0 -20 7 -20 69 0 46 4 71 13 74 28 12 85 6 98 -9z
m97 -61 c3 -72 3 -73 -23 -73 -25 0 -25 1 -25 76 0 72 1 75 23 72 20 -3 22 -9
25 -75z m142 58 c0 -15 -8 -21 -32 -23 -29 -3 -33 -7 -36 -35 -3 -32 16 -48
49 -41 20 5 22 -30 2 -36 -32 -10 -77 9 -91 38 -28 57 10 116 75 116 26 0 33
-4 33 -19z m124 3 c11 -10 16 -34 16 -75 0 -57 -1 -59 -27 -61 -71 -4 -103 10
-103 43 0 27 28 49 61 49 18 0 28 4 24 10 -3 6 -19 10 -36 10 -22 0 -29 5 -29
20 0 17 7 20 39 20 23 0 46 -7 55 -16z m237 5 c8 -4 15 -34 17 -73 4 -66 4
-66 -22 -66 -25 0 -26 2 -26 55 0 42 -3 55 -15 55 -12 0 -15 -13 -15 -55 0
-52 -1 -55 -25 -55 -24 0 -25 3 -25 55 0 42 -3 55 -15 55 -12 0 -15 -13 -15
-55 0 -52 -1 -55 -25 -55 -24 0 -25 2 -25 69 0 46 4 71 13 74 21 8 164 5 178
-4z m152 0 c30 -16 37 -28 37 -68 0 -43 -24 -71 -62 -71 -23 0 -28 -4 -28 -25
0 -20 -5 -25 -25 -25 -25 0 -25 0 -25 93 0 52 3 97 7 100 10 11 72 8 96 -4z
m-4834 -1264 c28 -14 61 -68 61 -100 0 -21 -25 -68 -45 -85 -9 -7 -33 -16 -53
-19 l-36 -6 -103 -245 c-57 -135 -103 -249 -102 -255 0 -5 21 -25 47 -44 81
-57 152 -175 152 -251 l0 -30 273 0 273 0 18 31 c10 16 33 38 52 47 31 14 39
15 76 2 81 -29 101 -130 37 -184 -52 -44 -141 -28 -167 28 l-12 26 -273 0
-274 0 -6 -39 c-12 -91 -87 -205 -165 -253 -21 -12 -38 -22 -40 -23 -1 -1 7
-26 18 -56 17 -45 25 -54 47 -56 81 -4 127 -88 89 -161 -13 -26 -37 -43 -78
-55 -33 -11 -88 13 -108 46 -26 41 -25 80 1 127 21 37 21 39 5 81 l-17 44
-117 0 c-109 0 -121 2 -170 28 -111 59 -182 148 -208 265 -39 174 48 347 214
425 60 29 75 32 152 30 47 -1 95 -3 108 -5 22 -3 31 15 128 245 l104 247 -20
33 c-62 101 36 216 139 162z m3977 -4 c35 -21 60 -78 50 -115 -10 -40 -45 -75
-82 -82 -19 -3 -37 -4 -40 -2 -9 9 16 60 38 78 20 15 21 21 10 44 -8 18 -19
26 -36 26 -26 0 -51 -32 -43 -54 3 -7 -2 -28 -10 -47 l-14 -34 -19 25 c-36 47
-30 105 15 148 41 38 83 42 131 13z m-301 -710 c290 -143 290 -543 -1 -691
-43 -22 -61 -25 -159 -25 -101 0 -115 2 -167 28 -322 161 -270 629 79 717 70
17 179 5 248 -29z m926 -248 c29 -17 59 -67 59 -98 0 -25 -27 -72 -52 -89 -12
-9 -42 -16 -66 -16 -35 0 -49 6 -73 29 -16 16 -29 34 -29 40 0 14 65 14 90 1
13 -7 24 -5 40 8 42 34 -1 88 -49 63 -28 -16 -81 -14 -81 2 0 15 47 62 70 70
29 11 62 7 91 -10z m-794 -572 c98 -72 14 -229 -102 -191 -19 6 -44 23 -55 37
-27 35 -27 102 1 138 l22 27 13 -32 c8 -18 14 -45 14 -60 0 -39 23 -56 55 -42
31 14 34 56 6 71 -15 9 -41 58 -41 78 0 9 66 -10 87 -26z m-4579 -245 c22 -20
23 -21 3 -36 -10 -8 -41 -34 -68 -56 l-48 -42 -28 24 -28 24 57 65 c61 70 57
69 112 21z m3961 -48 c-19 -16 -50 -42 -70 -58 l-37 -30 -26 21 c-14 11 -26
24 -26 28 0 4 25 35 56 69 l56 62 40 -32 40 -32 -33 -28z m-3938 -144 c61 -36
70 -66 75 -236 3 -84 1 -158 -4 -165 -12 -19 -171 -34 -238 -23 -70 12 -101
31 -120 75 -18 45 -18 77 3 120 24 50 80 75 171 75 77 0 85 7 57 47 -20 28
-71 38 -132 25 -26 -6 -49 -9 -52 -7 -5 5 -20 89 -17 93 2 1 23 7 47 12 68 14
172 6 210 -16z m414 15 l75 -11 0 -207 c0 -119 -5 -223 -11 -246 -14 -50 -64
-100 -114 -114 -52 -14 -144 -14 -201 0 l-45 12 6 41 c9 55 16 60 61 47 83
-23 153 -9 173 36 18 40 14 56 -11 46 -13 -4 -48 -8 -79 -7 -111 1 -168 68
-169 197 0 115 50 182 155 208 45 11 76 10 160 -2z m828 -9 c5 -4 6 -28 2 -52
l-7 -45 -69 5 -69 5 -2 -169 -3 -169 -60 0 -60 0 -3 203 -2 202 26 10 c70 27
223 33 247 10z m302 7 c91 -35 104 -70 105 -274 l0 -151 -67 -8 c-221 -24
-303 12 -303 134 0 92 57 132 188 132 53 0 62 3 62 18 0 38 -24 55 -81 56 -30
1 -68 -2 -85 -6 -31 -7 -32 -6 -39 38 -3 25 -4 48 -1 51 21 21 175 28 221 10z
m2423 -11 c64 -33 72 -61 72 -247 l0 -166 -40 -7 c-22 -3 -73 -9 -113 -11
-133 -10 -217 43 -217 137 0 91 65 138 189 138 70 0 72 1 66 23 -15 50 -57 62
-165 47 -34 -5 -34 -4 -42 39 -4 25 -6 47 -3 49 25 26 203 24 253 -2z m417 13
l75 -11 0 -212 c-1 -268 -12 -305 -105 -347 -46 -21 -166 -25 -229 -8 l-38 11
7 46 c4 26 8 48 10 50 2 2 30 -2 64 -9 95 -18 148 -1 165 57 6 20 3 21 -71 20
-93 -1 -136 19 -170 80 -68 121 -15 281 106 318 57 18 90 19 186 5z m828 -8
c5 -5 6 -29 2 -54 l-7 -46 -69 6 -69 6 -2 -169 -3 -169 -62 -3 -63 -3 0 210 0
210 58 11 c31 7 62 14 67 16 17 6 139 -6 148 -15z m300 8 c47 -13 83 -49 96
-96 6 -21 11 -104 11 -185 l0 -147 -57 -8 c-96 -13 -204 -8 -247 12 -73 35
-94 136 -43 201 29 38 76 54 157 54 61 0 70 2 70 18 0 46 -64 69 -145 53 -27
-5 -52 -8 -54 -6 -2 2 -6 24 -8 49 -5 43 -4 45 23 51 16 4 34 8 39 10 23 8
123 4 158 -6z m-4688 -23 c87 -41 125 -103 125 -201 0 -124 -94 -215 -222
-215 -193 0 -288 226 -155 367 70 74 162 92 252 49z m3976 -3 c74 -38 111 -93
117 -172 10 -141 -81 -241 -218 -241 -72 0 -122 22 -167 74 -92 104 -59 273
66 338 71 37 129 37 202 1z m-3843 -446 c4 -20 -25 -34 -40 -19 -15 15 -1 44
19 40 10 -2 19 -11 21 -21z m3970 0 c4 -20 -25 -34 -40 -19 -15 15 -1 44 19
40 10 -2 19 -11 21 -21z m-4073 -62 c20 -19 25 -34 25 -75 0 -43 -3 -50 -20
-50 -17 0 -20 7 -20 39 0 52 -8 71 -31 71 -16 0 -19 -8 -19 -55 0 -48 -2 -55
-20 -55 -18 0 -20 7 -20 69 0 76 -4 71 68 80 7 0 24 -10 37 -24z m235 15 c19
-12 4 -27 -30 -32 -21 -3 -25 -8 -25 -38 0 -32 3 -35 33 -38 34 -3 46 -31 15
-34 -77 -6 -117 49 -82 113 16 32 62 46 89 29z m137 -12 c8 -6 13 -34 13 -68
l0 -58 -33 -4 c-62 -7 -82 4 -82 42 0 32 3 36 38 44 47 12 48 26 2 26 -24 0
-35 5 -35 14 0 26 68 29 97 4z m237 2 c5 -5 12 -37 14 -70 4 -55 3 -60 -16
-60 -18 0 -21 7 -24 52 -2 41 -7 54 -20 56 -15 3 -18 -5 -18 -52 0 -49 -3 -56
-19 -56 -17 0 -20 8 -23 52 -2 41 -7 54 -20 56 -15 3 -18 -5 -18 -52 0 -49 -2
-56 -20 -56 -18 0 -20 7 -20 69 0 65 2 70 23 73 43 6 151 -2 161 -12z m169
-12 c37 -43 10 -118 -44 -118 -24 0 -29 -4 -29 -25 0 -18 -5 -25 -20 -25 -19
0 -20 7 -20 94 0 82 2 95 18 99 30 8 76 -4 95 -25z m3174 26 c25 -7 43 -50 43
-105 0 -35 -3 -39 -25 -39 -24 0 -25 3 -25 55 0 48 -2 55 -20 55 -18 0 -20 -7
-20 -55 0 -48 -2 -55 -20 -55 -18 0 -20 7 -20 69 0 64 2 70 23 74 36 7 41 7
64 1z m241 0 c30 -9 23 -28 -14 -34 -26 -5 -29 -9 -29 -40 0 -32 3 -35 33 -38
36 -4 44 -27 11 -37 -30 -10 -76 13 -87 43 -12 37 3 87 30 100 28 13 28 13 56
6z m142 -14 c15 -15 20 -33 20 -74 0 -51 -1 -54 -29 -59 -48 -10 -101 14 -101
45 0 18 41 48 66 48 14 0 23 4 19 10 -3 6 -19 10 -36 10 -18 0 -29 5 -29 14 0
30 62 34 90 6z m242 2 c7 -7 14 -39 16 -72 4 -56 3 -60 -17 -60 -15 0 -22 7
-23 23 -2 25 -4 56 -7 75 0 6 -8 12 -16 12 -12 0 -15 -13 -15 -55 0 -48 -2
-55 -20 -55 -17 0 -20 7 -20 39 0 49 -8 71 -26 71 -10 0 -14 -15 -14 -55 0
-47 -3 -55 -19 -55 -16 0 -20 9 -23 54 -4 69 -1 84 20 88 35 8 154 0 164 -10z
m171 -14 c38 -44 7 -122 -49 -123 -24 0 -28 -4 -26 -23 3 -18 -2 -22 -22 -22
l-26 0 0 94 0 95 28 4 c42 7 75 -2 95 -25z m-4971 -30 c2 -41 7 -54 21 -56 14
-3 17 5 17 52 0 49 2 56 20 56 18 0 20 -7 20 -70 l0 -70 -50 0 c-59 0 -70 14
-70 89 0 44 3 51 19 51 17 0 20 -8 23 -52z m318 -18 c0 -63 -2 -70 -20 -70
-18 0 -20 7 -20 70 0 63 2 70 20 70 18 0 20 -7 20 -70z m3652 18 c2 -41 7 -54
21 -56 14 -3 17 5 17 52 0 49 2 56 20 56 18 0 20 -7 20 -70 0 -69 0 -70 -27
-72 -77 -4 -90 7 -96 85 -4 54 -3 57 19 57 21 0 23 -5 26 -52z m318 -18 c0
-63 -2 -70 -20 -70 -18 0 -20 7 -20 70 0 63 2 70 20 70 18 0 20 -7 20 -70z"/>
<path d="M5940 6870 c-15 -28 4 -60 35 -60 14 0 29 8 35 20 15 28 -4 60 -35
60 -14 0 -29 -8 -35 -20z"/>
<path d="M5515 6026 c-78 -34 -112 -124 -76 -199 70 -143 281 -96 281 62 0
108 -108 179 -205 137z"/>
<path d="M6572 5913 c-15 -28 3 -63 31 -63 36 0 53 24 39 55 -14 30 -57 34
-70 8z"/>
<path d="M5772 5358 c-34 -34 6 -90 48 -68 35 19 20 80 -20 80 -9 0 -21 -5
-28 -12z"/>
<path d="M5120 4720 c-24 -24 -24 -30 -7 -54 9 -12 31 -20 65 -24 l52 -5 0 52
0 51 -45 0 c-32 0 -51 -6 -65 -20z"/>
<path d="M5560 4893 c-61 -24 -80 -143 -29 -189 20 -18 76 -23 98 -9 7 4 11
46 11 106 l0 99 -32 -1 c-18 0 -40 -3 -48 -6z"/>
<path d="M6703 4728 c-56 -27 -8 -92 64 -86 38 3 38 3 38 48 l0 45 -40 2 c-22
1 -50 -3 -62 -9z"/>
<path d="M5978 4849 c-15 -6 -33 -25 -43 -46 -16 -33 -16 -39 -2 -68 32 -67
115 -69 151 -3 17 31 18 39 6 67 -7 18 -25 38 -41 46 -32 17 -34 17 -71 4z"/>
<path d="M2470 4375 c0 -8 9 -15 20 -15 11 0 20 7 20 15 0 8 -9 15 -20 15 -11
0 -20 -7 -20 -15z"/>
<path d="M2870 4400 c0 -43 17 -53 40 -25 18 21 4 65 -20 65 -17 0 -20 -7 -20
-40z"/>
<path d="M6440 4375 c0 -8 9 -15 20 -15 11 0 20 7 20 15 0 8 -9 15 -20 15 -11
0 -20 -7 -20 -15z"/>
<path d="M6842 4403 c4 -51 33 -54 33 -3 0 26 -5 36 -18 38 -16 3 -18 -2 -15
-35z"/>
<path d="M1971 3128 c-13 -33 4 -60 36 -56 56 7 55 69 -1 76 -20 3 -28 -2 -35
-20z"/>
<path d="M1556 2290 c-68 -21 -116 -107 -97 -176 14 -49 27 -66 71 -93 67 -40
161 -19 201 45 46 75 12 186 -67 219 -40 17 -64 18 -108 5z"/>
<path d="M2613 2183 c-7 -2 -13 -18 -13 -33 0 -38 29 -55 58 -34 48 34 10 90
-45 67z"/>
<path d="M1808 1619 c-22 -12 -23 -52 -3 -69 12 -10 21 -10 40 -2 31 14 34 56
6 72 -23 12 -22 12 -43 -1z"/>
<path d="M5515 2286 c-55 -24 -95 -85 -95 -142 0 -39 36 -100 73 -123 69 -43
173 -17 208 51 42 82 14 173 -64 208 -49 23 -81 24 -122 6z"/>
<path d="M1150 980 c-11 -11 -20 -26 -20 -34 0 -25 42 -46 92 -46 l48 0 0 50
0 50 -50 0 c-37 0 -55 -5 -70 -20z"/>
<path d="M1582 1150 c-26 -11 -52 -65 -52 -109 0 -72 44 -111 108 -95 l37 9 0
100 0 100 -35 2 c-19 1 -45 -2 -58 -7z"/>
<path d="M2726 984 c-22 -21 -20 -61 3 -74 11 -5 40 -10 65 -10 l46 0 0 50 0
50 -49 0 c-32 0 -55 -6 -65 -16z"/>
<path d="M5123 985 c-52 -36 -11 -85 70 -85 l48 0 -3 48 -3 47 -45 3 c-29 2
-53 -3 -67 -13z"/>
<path d="M5553 1150 c-48 -20 -68 -112 -38 -170 18 -34 65 -47 108 -31 l28 11
-3 97 -3 98 -35 2 c-19 1 -45 -2 -57 -7z"/>
<path d="M6703 990 c-17 -7 -23 -18 -23 -39 0 -37 23 -51 84 -51 l46 0 0 50 0
50 -42 -1 c-24 0 -53 -4 -65 -9z"/>
<path d="M2003 1104 c-59 -29 -65 -110 -11 -148 35 -25 76 -20 109 13 36 36
38 79 7 115 -30 33 -65 40 -105 20z"/>
<path d="M5969 1105 c-54 -29 -60 -107 -12 -145 37 -29 79 -26 114 9 46 46 37
106 -21 136 -35 18 -47 18 -81 0z"/>
<path d="M2470 635 c0 -8 9 -15 20 -15 11 0 20 7 20 15 0 8 -9 15 -20 15 -11
0 -20 -7 -20 -15z"/>
<path d="M2870 660 c0 -33 3 -40 20 -40 24 0 38 44 20 65 -23 28 -40 18 -40
-25z"/>
<path d="M6440 635 c0 -8 9 -15 20 -15 11 0 20 7 20 15 0 8 -9 15 -20 15 -11
0 -20 -7 -20 -15z"/>
<path d="M6835 663 c1 -44 27 -57 45 -24 14 26 -3 61 -29 61 -14 0 -18 -8 -16
-37z"/>
</g>
</svg>
