<?xml version="1.0" encoding="UTF-8" standalone="no"?>
<!-- Created with Inkscape (http://www.inkscape.org/) -->

<svg
   xmlns:dc="http://purl.org/dc/elements/1.1/"
   xmlns:cc="http://creativecommons.org/ns#"
   xmlns:rdf="http://www.w3.org/1999/02/22-rdf-syntax-ns#"
   xmlns:svg="http://www.w3.org/2000/svg"
   xmlns="http://www.w3.org/2000/svg"
   xmlns:sodipodi="http://sodipodi.sourceforge.net/DTD/sodipodi-0.dtd"
   xmlns:inkscape="http://www.inkscape.org/namespaces/inkscape"
   width="63mm"
   height="58mm"
   viewBox="0 0 63 58"
   version="1.1"
   id="svg4781"
   inkscape:version="0.92.1 r15371"
   sodipodi:docname="agora-2-svg.svg">
  <defs
     id="defs4775" />
  <sodipodi:namedview
     id="base"
     pagecolor="#ffffff"
     bordercolor="#666666"
     borderopacity="1.0"
     inkscape:pageopacity="0.0"
     inkscape:pageshadow="2"
     inkscape:zoom="1.4"
     inkscape:cx="18.038548"
     inkscape:cy="222.74574"
     inkscape:document-units="mm"
     inkscape:current-layer="layer1"
     showgrid="false"
     inkscape:window-width="1920"
     inkscape:window-height="1057"
     inkscape:window-x="2552"
     inkscape:window-y="-8"
     inkscape:window-maximized="1" />
  <metadata
     id="metadata4778">
    <rdf:RDF>
      <cc:Work
         rdf:about="">
        <dc:format>image/svg+xml</dc:format>
        <dc:type
           rdf:resource="http://purl.org/dc/dcmitype/StillImage" />
        <dc:title></dc:title>
      </cc:Work>
    </rdf:RDF>
  </metadata>
  <g
     inkscape:label="Camada 1"
     inkscape:groupmode="layer"
     id="layer1"
     transform="translate(0,-239)">
    <g
       transform="matrix(0.26458333,0,0,0.26458333,-7.8139533,230.77084)"
       id="Layer1000">
      <path
         d="m 130.0068,32.6184 c 7.5839,0 13.7318,6.1482 13.7318,13.7318 0,7.5839 -6.1479,13.7318 -13.7318,13.7318 -7.5839,0 -13.7318,-6.1479 -13.7318,-13.7318 0,-7.5836 6.1479,-13.7318 13.7318,-13.7318 z"
         style="fill:#ff7e29;fill-rule:evenodd"
         id="path12"
         inkscape:connector-curvature="0" />
      <path
         d="m 207.7993,151.1984 c 7.5839,0 13.7318,6.148 13.7318,13.7318 0,7.5837 -6.1479,13.7318 -13.7318,13.7318 -7.5838,0 -13.7318,-6.1481 -13.7318,-13.7318 0,-7.5838 6.148,-13.7318 13.7318,-13.7318 z"
         style="fill:#1eb04e;fill-rule:evenodd"
         id="path14"
         inkscape:connector-curvature="0" />
      <path
         d="m 108.1144,220.5479 c 7.5839,0 13.7318,6.1479 13.7318,13.7318 0,7.5836 -6.1479,13.7318 -13.7318,13.7318 -7.5838,0 -13.7318,-6.1482 -13.7318,-13.7318 0,-7.5839 6.148,-13.7318 13.7318,-13.7318 z"
         style="fill:#09a2e6;fill-rule:evenodd"
         id="path16"
         inkscape:connector-curvature="0" />
      <path
         d="m 130.0068,40.8576 c 3.0334,0 5.4927,2.4592 5.4927,5.4926 0,3.0337 -2.4593,5.4929 -5.4927,5.4929 -3.0336,0 -5.4927,-2.4592 -5.4927,-5.4929 0,-3.0334 2.4591,-5.4926 5.4927,-5.4926 z"
         style="fill:#c64b00;fill-rule:evenodd"
         id="path18"
         inkscape:connector-curvature="0" />
      <path
         d="m 207.7993,170.4229 c -3.0336,0 -5.4926,-2.4593 -5.4926,-5.4927 0,-3.0336 2.459,-5.4926 5.4926,-5.4926 3.0334,0 5.4927,2.459 5.4927,5.4926 0,3.0334 -2.4593,5.4927 -5.4927,5.4927 z"
         style="fill:#115f29;fill-rule:evenodd"
         id="path20"
         inkscape:connector-curvature="0" />
      <path
         d="m 108.1144,239.7724 c -3.0336,0 -5.4926,-2.4593 -5.4926,-5.4927 0,-3.0337 2.459,-5.4929 5.4926,-5.4929 3.0334,0 5.4927,2.4592 5.4927,5.4929 0,3.0334 -2.4593,5.4927 -5.4927,5.4927 z"
         style="fill:#065c84;fill-rule:evenodd"
         id="path22"
         inkscape:connector-curvature="0" />
      <path
         d="m 238.8656,158.0883 c -0.68,-0.1701 -1.4791,-0.3486 -2.3973,-0.5356 -0.9181,-0.1871 -1.9041,-0.2806 -2.9583,-0.2806 -0.4761,0 -1.0456,0.0425 -1.7088,0.1276 -0.6631,0.085 -1.1646,0.1785 -1.5046,0.2806 v 20.5044 h -7.6 v -25.4011 c 1.3602,-0.476 2.9669,-0.9266 4.8201,-1.3517 1.8532,-0.425 3.919,-0.6376 6.1974,-0.6376 0.408,0 0.9011,0.0256 1.4791,0.0766 0.5781,0.051 1.1561,0.1189 1.7342,0.204 0.578,0.085 1.1562,0.187 1.7342,0.306 0.5781,0.119 1.0711,0.2635 1.4792,0.4336 z"
         style="fill:#ff7e29;fill-rule:evenodd"
         id="path24"
         inkscape:connector-curvature="0" />
      <g
         id="Layer1001">
        <path
           d="m 252.7319,150.6413 c 2.2443,0 4.1145,0.255 5.6107,0.7652 1.4962,0.51 2.6949,1.241 3.596,2.1931 0.9009,0.9522 1.5386,2.1083 1.9127,3.4685 0.374,1.3601 0.561,2.8734 0.561,4.5396 v 15.812 c -1.0881,0.238 -2.6013,0.5185 -4.5396,0.8416 -1.9381,0.323 -4.2845,0.4845 -7.0388,0.4845 -1.7342,0 -3.307,-0.1531 -4.7181,-0.4591 -1.4112,-0.306 -2.6268,-0.8076 -3.6469,-1.5047 -1.0202,-0.6971 -1.8022,-1.6067 -2.3463,-2.7287 -0.5441,-1.1223 -0.8161,-2.4994 -0.8161,-4.1317 0,-1.5641 0.3145,-2.8902 0.9435,-3.9784 0.6292,-1.0882 1.4708,-1.9553 2.525,-2.6014 1.0541,-0.6461 2.2612,-1.1136 3.6214,-1.4027 1.3601,-0.2889 2.7713,-0.4334 4.2334,-0.4334 0.9862,0 1.8618,0.0425 2.6268,0.1274 0.7652,0.0851 1.3858,0.1956 1.8619,0.3316 v -0.714 c 0,-1.2922 -0.3911,-2.3294 -1.1733,-3.1114 -0.782,-0.7822 -2.1423,-1.1733 -4.0804,-1.1733 -1.2922,0 -2.5673,0.0936 -3.8255,0.2806 -1.2581,0.1871 -2.3463,0.4506 -3.2643,0.7907 l -0.9693,-6.1208 c 0.4421,-0.136 0.9947,-0.2806 1.6577,-0.4336 0.6632,-0.153 1.3858,-0.2891 2.1679,-0.408 0.782,-0.119 1.6067,-0.221 2.4738,-0.306 0.867,-0.0851 1.7427,-0.1276 2.6268,-0.1276 z"
           style="fill:#09a2e6;fill-rule:evenodd"
           id="path26"
           inkscape:connector-curvature="0" />
        <path
           d="m 253.3439,172.88 c 0.7481,0 1.4622,-0.0169 2.1423,-0.051 0.6802,-0.0339 1.2241,-0.0849 1.6323,-0.153 v -5.7637 c -0.3062,-0.068 -0.7652,-0.136 -1.3773,-0.2041 -0.612,-0.0679 -1.1731,-0.102 -1.6831,-0.102 -0.7142,0 -1.3857,0.0426 -2.0149,0.1276 -0.629,0.0851 -1.1815,0.2466 -1.6577,0.4846 -0.476,0.2379 -0.8501,0.5611 -1.1221,0.9691 -0.2719,0.408 -0.408,0.9181 -0.408,1.5301 0,1.1902 0.3996,2.0147 1.1987,2.4739 0.7991,0.4591 1.8957,0.6885 3.2898,0.6885 z"
           style="fill:#065c84;fill-rule:evenodd"
           id="path28"
           inkscape:connector-curvature="0" />
      </g>
      <path
         d="m 206.5696,191.7643 c -0.4315,0.1248 -0.9876,0.2411 -1.6688,0.349 -0.681,0.1078 -1.3962,0.1618 -2.1455,0.1618 -0.7606,0 -1.3934,-0.1022 -1.8985,-0.3065 -0.5051,-0.2043 -0.9053,-0.4909 -1.2005,-0.8599 -0.2951,-0.369 -0.5051,-0.8089 -0.63,-1.3196 -0.1248,-0.5109 -0.1873,-1.0728 -0.1873,-1.6858 v -4.9891 h 2.5371 v 4.6827 c 0,0.8173 0.1079,1.4075 0.3236,1.7707 0.2156,0.3634 0.6186,0.5449 1.2089,0.5449 0.1817,0 0.3746,-0.008 0.579,-0.0254 0.2043,-0.0171 0.3858,-0.037 0.5449,-0.0597 v -6.9132 h 2.5371 z m 2.3838,-8.3436 c 0.4314,-0.1248 0.9876,-0.2412 1.6688,-0.3491 0.681,-0.1077 1.3962,-0.1617 2.1454,-0.1617 0.7606,0 1.3934,0.0994 1.8986,0.298 0.5052,0.1987 0.9053,0.4796 1.2004,0.8428 0.2952,0.3633 0.5052,0.7947 0.63,1.2942 0.1249,0.4995 0.1874,1.0556 0.1874,1.6686 v 5.0573 h -2.5371 v -4.7507 c 0,-0.8173 -0.1079,-1.3963 -0.3235,-1.7369 -0.2157,-0.3405 -0.6187,-0.5108 -1.209,-0.5108 -0.1816,0 -0.3747,0.009 -0.579,0.0256 -0.2043,0.017 -0.386,0.0368 -0.5449,0.0596 v 6.9132 h -2.5371 z m 12.5664,8.6501 h -2.5371 v -8.9566 h 2.5371 z m 0.2385,-11.5447 c 0,0.4654 -0.1505,0.8315 -0.4513,1.0982 -0.3008,0.2668 -0.6555,0.4002 -1.0642,0.4002 -0.4086,0 -0.7634,-0.1334 -1.0642,-0.4002 -0.3008,-0.2667 -0.4513,-0.6328 -0.4513,-1.0982 0,-0.4655 0.1505,-0.8315 0.4513,-1.0983 0.3008,-0.2669 0.6556,-0.4002 1.0642,-0.4002 0.4087,0 0.7634,0.1333 1.0642,0.4002 0.3008,0.2668 0.4513,0.6328 0.4513,1.0983 z m 1.7196,7.0665 c 0,-0.6472 0.1051,-1.2573 0.315,-1.8306 0.2101,-0.5732 0.5137,-1.0727 0.9111,-1.4984 0.3973,-0.4256 0.8797,-0.7634 1.4473,-1.0131 0.5677,-0.2498 1.2147,-0.3747 1.9411,-0.3747 0.4769,0 0.9139,0.0426 1.3112,0.1277 0.3974,0.0851 0.7833,0.2072 1.1579,0.3662 l -0.5278,2.0262 c -0.2385,-0.0908 -0.4995,-0.1703 -0.7834,-0.2383 -0.2838,-0.0682 -0.6016,-0.1022 -0.9534,-0.1022 -0.7494,0 -1.3084,0.2327 -1.6773,0.6981 -0.3689,0.4655 -0.5534,1.0784 -0.5534,1.8391 0,0.8059 0.1731,1.4302 0.5193,1.8729 0.3462,0.4427 0.9508,0.6642 1.8135,0.6642 0.3065,0 0.6357,-0.0284 0.9876,-0.0852 0.3519,-0.0567 0.6754,-0.1476 0.9705,-0.2724 l 0.3576,2.0774 c -0.2951,0.1247 -0.664,0.2326 -1.1068,0.3234 -0.4427,0.0908 -0.9308,0.1363 -1.4643,0.1363 -0.8174,0 -1.5211,-0.1221 -2.1114,-0.3662 -0.5904,-0.244 -1.0756,-0.576 -1.4559,-0.996 -0.3802,-0.4201 -0.6584,-0.9167 -0.8344,-1.4899 -0.1759,-0.5733 -0.264,-1.1949 -0.264,-1.8645 z m 11.9364,2.7072 c 0.2497,0 0.4881,-0.006 0.7152,-0.017 0.2271,-0.0114 0.4086,-0.0284 0.5449,-0.051 v -1.9242 c -0.1022,-0.0226 -0.2555,-0.0454 -0.4598,-0.068 -0.2042,-0.0228 -0.3917,-0.0342 -0.5618,-0.0342 -0.2385,0 -0.4627,0.0142 -0.6726,0.0426 -0.2101,0.0284 -0.3946,0.0824 -0.5535,0.1619 -0.1589,0.0794 -0.2838,0.1873 -0.3746,0.3234 -0.0907,0.1363 -0.1363,0.3066 -0.1363,0.5109 0,0.3974 0.1335,0.6726 0.4002,0.8258 0.2668,0.1532 0.6328,0.2298 1.0983,0.2298 z m -0.2043,-7.424 c 0.7492,0 1.3736,0.0851 1.873,0.2554 0.4995,0.1703 0.8996,0.4144 1.2005,0.7322 0.3008,0.318 0.5136,0.7038 0.6386,1.1579 0.1247,0.4541 0.1872,0.9592 0.1872,1.5155 v 5.2785 c -0.3633,0.0795 -0.8684,0.1731 -1.5154,0.281 -0.6471,0.1078 -1.4304,0.1618 -2.3499,0.1618 -0.5789,0 -1.1039,-0.0511 -1.575,-0.1533 -0.4711,-0.1022 -0.8769,-0.2695 -1.2175,-0.5023 -0.3406,-0.2327 -0.6017,-0.5364 -0.7832,-0.9109 -0.1817,-0.3746 -0.2724,-0.8344 -0.2724,-1.3793 0,-0.5222 0.1049,-0.9649 0.315,-1.3282 0.2099,-0.3632 0.4909,-0.6527 0.8427,-0.8684 0.352,-0.2157 0.755,-0.3718 1.2091,-0.4682 0.454,-0.0965 0.9251,-0.1447 1.4132,-0.1447 0.3292,0 0.6216,0.0142 0.8769,0.0424 0.2554,0.0284 0.4627,0.0654 0.6216,0.1107 v -0.2383 c 0,-0.4314 -0.1305,-0.7777 -0.3916,-1.0387 -0.2612,-0.2611 -0.7152,-0.3916 -1.3623,-0.3916 -0.4314,0 -0.857,0.0312 -1.2771,0.0936 -0.42,0.0625 -0.7832,0.1505 -1.0898,0.264 l -0.3234,-2.0434 c 0.1475,-0.0454 0.332,-0.0936 0.5533,-0.1447 0.2214,-0.051 0.4627,-0.0965 0.7237,-0.1362 0.2611,-0.0397 0.5364,-0.0739 0.8259,-0.1022 0.2895,-0.0284 0.5817,-0.0426 0.8769,-0.0426 z m 11.119,4.4443 c 0,-0.8173 -0.105,-1.3963 -0.3149,-1.7369 -0.2101,-0.3405 -0.5705,-0.5108 -1.0813,-0.5108 -0.159,0 -0.3235,0.009 -0.4938,0.0256 -0.1703,0.017 -0.3349,0.0368 -0.4939,0.0596 v 6.9132 h -2.5371 v -8.6501 c 0.2157,-0.0567 0.4683,-0.1164 0.7578,-0.1788 0.2894,-0.0624 0.596,-0.1191 0.9194,-0.1703 0.3236,-0.051 0.6556,-0.0907 0.9962,-0.1191 0.3405,-0.0284 0.6754,-0.0426 1.0046,-0.0426 0.6471,0 1.1721,0.0824 1.5751,0.2469 0.403,0.1647 0.735,0.3604 0.9961,0.5874 0.3633,-0.261 0.7805,-0.4653 1.2515,-0.613 0.4711,-0.1475 0.9054,-0.2213 1.3026,-0.2213 0.7152,0 1.3026,0.0994 1.7623,0.298 0.4598,0.1987 0.8259,0.4796 1.0984,0.8428 0.2724,0.3633 0.4597,0.7947 0.5619,1.2942 0.1021,0.4995 0.1533,1.0556 0.1533,1.6686 v 5.0573 H 251.25 v -4.7507 c 0,-0.8173 -0.1049,-1.3963 -0.315,-1.7369 -0.21,-0.3405 -0.5704,-0.5108 -1.0813,-0.5108 -0.1362,0 -0.3263,0.034 -0.5703,0.1022 -0.2441,0.0681 -0.4456,0.1533 -0.6046,0.2554 0.0795,0.2611 0.1306,0.5363 0.1533,0.8258 0.0227,0.2894 0.0341,0.5988 0.0341,0.928 v 4.887 h -2.5372 z m 15.4952,0.3405 c 0,-0.7832 -0.176,-1.4104 -0.5279,-1.8816 -0.3519,-0.4711 -0.874,-0.7066 -1.5666,-0.7066 -0.2269,0 -0.437,0.009 -0.63,0.0256 -0.1929,0.017 -0.3518,0.0368 -0.4768,0.0596 v 4.5803 c 0.159,0.1022 0.3662,0.1873 0.6216,0.2555 0.2553,0.0681 0.5136,0.1021 0.7748,0.1021 1.2033,0 1.8049,-0.8115 1.8049,-2.4349 z m 2.5881,-0.068 c 0,0.6924 -0.0851,1.3224 -0.2554,1.8899 -0.1703,0.5676 -0.42,1.0558 -0.7492,1.4645 -0.3292,0.4086 -0.7378,0.7264 -1.226,0.9535 -0.4881,0.227 -1.05,0.3406 -1.6857,0.3406 -0.3519,0 -0.6811,-0.0341 -0.9876,-0.1022 -0.3064,-0.0681 -0.6016,-0.1647 -0.8855,-0.2894 v 3.3714 h -2.5371 v -11.8002 c 0.2271,-0.068 0.4881,-0.1334 0.7833,-0.1958 0.2951,-0.0625 0.6045,-0.1163 0.9281,-0.1617 0.3234,-0.0455 0.6526,-0.0823 0.9875,-0.1107 0.3349,-0.0284 0.6556,-0.0426 0.9621,-0.0426 0.7378,0 1.3963,0.1107 1.9751,0.332 0.5791,0.2213 1.0672,0.5335 1.4645,0.9365 0.3972,0.403 0.7009,0.894 0.9109,1.4729 0.2101,0.579 0.315,1.2261 0.315,1.9413 z"
         style="fill:#09a2e6;fill-rule:evenodd"
         id="path31"
         inkscape:connector-curvature="0" />
      <path
         d="m 132.8495,47.5307 -49.7012,118.58 -5.6854,-2.3609 49.7012,-118.58 z"
         style="fill:#c64b00;fill-rule:evenodd"
         id="path33"
         inkscape:connector-curvature="0" />
      <path
         d="m 105.2596,235.424 -27.8088,-69.3494 5.7096,-2.2887 27.8089,69.3495 z"
         style="fill:#065c84;fill-rule:evenodd"
         id="path35"
         inkscape:connector-curvature="0" />
      <path
         d="M 207.7993,168.014 H 80.3056 v -6.1675 h 127.4937 z"
         style="fill:#115f29;fill-rule:evenodd"
         id="path37"
         inkscape:connector-curvature="0" />
      <path
         d="m 80.3056,117.8499 c 26.0016,0 47.0804,21.0785 47.0804,47.0803 0,26.0016 -21.0788,47.0804 -47.0804,47.0804 -26.0018,0 -47.0804,-21.0788 -47.0804,-47.0804 0,-26.0018 21.0786,-47.0803 47.0804,-47.0803 z"
         style="fill:#ec1c24;fill-rule:evenodd"
         id="path39"
         inkscape:connector-curvature="0" />
      <path
         d="m 80.3056,146.0981 c 10.4007,0 18.8322,8.4314 18.8322,18.8321 0,10.4005 -8.4315,18.8322 -18.8322,18.8322 -10.4007,0 -18.8322,-8.4317 -18.8322,-18.8322 0,-10.4007 8.4315,-18.8321 18.8322,-18.8321 z"
         style="fill:#930d11;fill-rule:evenodd"
         id="path41"
         inkscape:connector-curvature="0" />
      <g
         id="Layer1002">
        <path
           d="m 162.6627,141.7153 -8.3905,7.0898 -3.4938,-3.1114 7.2173,-8.263 z"
           style="fill:#ec1c24;fill-rule:evenodd"
           id="path43"
           inkscape:connector-curvature="0" />
        <path
           d="m 155.6239,150.6413 c 2.2443,0 4.1145,0.255 5.6107,0.7652 1.4963,0.51 2.6949,1.241 3.596,2.1931 0.901,0.9522 1.5386,2.1083 1.9128,3.4685 0.3739,1.3601 0.561,2.8734 0.561,4.5396 v 15.812 c -1.0882,0.238 -2.6013,0.5185 -4.5396,0.8416 -1.9382,0.323 -4.2845,0.4845 -7.0389,0.4845 -1.7341,0 -3.3069,-0.1531 -4.7181,-0.4591 -1.4111,-0.306 -2.6267,-0.8076 -3.6468,-1.5047 -1.0202,-0.6971 -1.8023,-1.6067 -2.3463,-2.7287 -0.5441,-1.1223 -0.8161,-2.4994 -0.8161,-4.1317 0,-1.5641 0.3145,-2.8902 0.9435,-3.9784 0.6291,-1.0882 1.4708,-1.9553 2.5249,-2.6014 1.0541,-0.6461 2.2613,-1.1136 3.6214,-1.4027 1.3602,-0.2889 2.7713,-0.4334 4.2335,-0.4334 0.9862,0 1.8617,0.0425 2.6268,0.1274 0.7652,0.0851 1.3857,0.1956 1.8618,0.3316 v -0.714 c 0,-1.2922 -0.391,-2.3294 -1.1732,-3.1114 -0.782,-0.7822 -2.1423,-1.1733 -4.0805,-1.1733 -1.2922,0 -2.5673,0.0936 -3.8254,0.2806 -1.2581,0.1871 -2.3463,0.4506 -3.2644,0.7907 l -0.9692,-6.1208 c 0.4421,-0.136 0.9946,-0.2806 1.6577,-0.4336 0.6632,-0.153 1.3857,-0.2891 2.1679,-0.408 0.782,-0.119 1.6067,-0.221 2.4737,-0.306 0.8671,-0.0851 1.7428,-0.1276 2.6268,-0.1276 z"
           style="fill:#ec1c24;fill-rule:evenodd"
           id="path45"
           inkscape:connector-curvature="0" />
        <path
           d="m 156.236,172.88 c 0.7481,0 1.4621,-0.0169 2.1423,-0.051 0.6801,-0.0339 1.2241,-0.0849 1.6322,-0.153 v -5.7637 c -0.3061,-0.068 -0.7652,-0.136 -1.3772,-0.2041 -0.6121,-0.0679 -1.1731,-0.102 -1.6831,-0.102 -0.7142,0 -1.3858,0.0426 -2.0149,0.1276 -0.629,0.0851 -1.1816,0.2466 -1.6577,0.4846 -0.476,0.2379 -0.8501,0.5611 -1.1221,0.9691 -0.272,0.408 -0.408,0.9181 -0.408,1.5301 0,1.1902 0.3995,2.0147 1.1986,2.4739 0.7991,0.4591 1.8958,0.6885 3.2899,0.6885 z"
           style="fill:#930d11;fill-rule:evenodd"
           id="path47"
           inkscape:connector-curvature="0" />
      </g>
      <g
         id="Layer1003">
        <path
           d="m 192.9019,174.8183 c 0,4.3865 -1.1136,7.6424 -3.3408,9.7678 -2.2274,2.1252 -5.6702,3.1878 -10.3288,3.1878 -1.6321,0 -3.2644,-0.1445 -4.8965,-0.4336 -1.6323,-0.2889 -3.1455,-0.6715 -4.5397,-1.1475 l 1.3263,-6.3758 c 1.19,0.476 2.4397,0.85 3.7488,1.1221 1.3092,0.2719 2.7969,0.408 4.4631,0.408 2.1762,0 3.715,-0.476 4.6161,-1.4281 0.9011,-0.9521 1.3517,-2.1764 1.3517,-3.6726 v -0.9691 c -0.8161,0.3742 -1.6577,0.6546 -2.5248,0.8417 -0.8672,0.187 -1.8107,0.2804 -2.8309,0.2804 -3.7065,0 -6.5458,-1.0965 -8.518,-3.2898 -1.9723,-2.1933 -2.9584,-5.2622 -2.9584,-9.2066 0,-1.9723 0.3061,-3.7659 0.9181,-5.3813 0.612,-1.6151 1.5047,-3.0007 2.6778,-4.1568 1.1732,-1.1563 2.6098,-2.0488 4.31,-2.678 1.7003,-0.629 3.6215,-0.9436 5.7638,-0.9436 0.918,0 1.8617,0.0425 2.8308,0.1276 0.9692,0.085 1.9298,0.1955 2.8819,0.3316 0.9521,0.1359 1.8617,0.2974 2.7288,0.4844 0.8671,0.1871 1.6407,0.3826 2.3207,0.5866 z"
           style="fill:#1eb04e;fill-rule:evenodd"
           id="path50"
           inkscape:connector-curvature="0" />
        <path
           d="m 176.2229,163.903 c 0,4.2504 1.7172,6.3758 5.1517,6.3758 0.782,0 1.5132,-0.1021 2.1932,-0.3062 0.6801,-0.204 1.2583,-0.4419 1.7343,-0.714 v -12.1395 c -0.374,-0.068 -0.8161,-0.1275 -1.3261,-0.1785 -0.5102,-0.051 -1.1052,-0.0766 -1.7853,-0.0766 -2.0063,0 -3.5025,0.6632 -4.4885,1.9893 -0.9862,1.3261 -1.4793,3.0094 -1.4793,5.0497 z"
           style="fill:#115f29;fill-rule:evenodd"
           id="path52"
           inkscape:connector-curvature="0" />
      </g>
    </g>
  </g>
</svg>
